<svg width="421" height="180" viewBox="0 0 421 180" fill="none" xmlns="http://www.w3.org/2000/svg">
<rect width="421" height="180" rx="13" fill="#303446"/>
<path d="M0 13C0 5.8203 5.8203 0 13 0H408C415.18 0 421 5.8203 421 13V17V34H0V13Z" fill="#414559"/>
<rect x="15" y="12" width="10" height="10" rx="5" fill="#E78284"/>
<rect x="35" y="12" width="10" height="10" rx="5" fill="#E5C890"/>
<rect x="55" y="12" width="10" height="10" rx="5" fill="#A6D189"/>
<path d="M21.876 56.42C21.692 56.42 21.516 56.364 21.348 56.252C21.18 56.148 21.04 56.012 20.928 55.844C20.824 55.676 20.772 55.508 20.772 55.34C20.772 55.148 20.852 54.944 21.012 54.728C21.172 54.512 21.36 54.3 21.576 54.092C21.8 53.876 21.996 53.692 22.164 53.54H17.208C16.752 53.54 16.428 53.504 16.236 53.432C16.044 53.36 15.892 53.24 15.78 53.072C15.668 52.912 15.612 52.688 15.612 52.4C15.612 52.112 15.664 51.888 15.768 51.728C15.88 51.568 16.032 51.448 16.224 51.368C16.416 51.296 16.744 51.26 17.208 51.26H22.164L21.576 50.696C21.248 50.376 21.032 50.132 20.928 49.964C20.824 49.788 20.772 49.62 20.772 49.46C20.772 49.292 20.824 49.124 20.928 48.956C21.032 48.788 21.168 48.652 21.336 48.548C21.512 48.436 21.692 48.38 21.876 48.38C22.036 48.38 22.208 48.432 22.392 48.536C22.576 48.632 22.792 48.8 23.04 49.04L26.496 52.4L23.112 55.688C22.824 55.96 22.588 56.148 22.404 56.252C22.22 56.364 22.044 56.42 21.876 56.42Z" fill="#A6D189"/>
<path d="M41.2266 51.6641C41.2266 51.9219 41.1836 52.1699 41.0977 52.4082C41.0117 52.6465 40.8906 52.8574 40.7344 53.041C40.5781 53.2246 40.3926 53.3711 40.1777 53.4805C39.9629 53.5898 39.7246 53.6445 39.4629 53.6445C39.2793 53.6445 39.1074 53.627 38.9473 53.5918C38.791 53.5566 38.6387 53.5039 38.4902 53.4336C38.3379 53.3633 38.1875 53.2773 38.0391 53.1758C37.8945 53.0742 37.7441 52.957 37.5879 52.8242C37.459 52.7188 37.334 52.627 37.2129 52.5488C37.0957 52.4668 36.9785 52.4023 36.8613 52.3555C36.7793 52.3203 36.6953 52.2949 36.6094 52.2793C36.5273 52.2637 36.4414 52.2559 36.3516 52.2559C36.2148 52.2559 36.0859 52.2852 35.9648 52.3438C35.8477 52.3984 35.7461 52.4727 35.6602 52.5664C35.5742 52.6641 35.5059 52.7793 35.4551 52.9121C35.4043 53.041 35.3789 53.1797 35.3789 53.3281L34.5938 53.2285C34.5938 52.9707 34.6367 52.7246 34.7227 52.4902C34.8086 52.2559 34.9297 52.0508 35.0859 51.875C35.2383 51.6992 35.4219 51.5605 35.6367 51.459C35.8516 51.3535 36.0898 51.3008 36.3516 51.3008C36.5312 51.3008 36.7012 51.3203 36.8613 51.3594C37.0254 51.3945 37.1836 51.4473 37.3359 51.5176C37.4883 51.5879 37.6367 51.6738 37.7812 51.7754C37.9297 51.877 38.0801 51.9902 38.2324 52.1152C38.334 52.2012 38.4316 52.2793 38.5254 52.3496C38.6191 52.416 38.7109 52.4727 38.8008 52.5195C38.9062 52.5781 39.0137 52.623 39.123 52.6543C39.2324 52.6816 39.3457 52.6934 39.4629 52.6895C39.5996 52.6895 39.7266 52.6582 39.8438 52.5957C39.9648 52.5332 40.0703 52.4492 40.1602 52.3438C40.2461 52.2422 40.3145 52.123 40.3652 51.9863C40.416 51.8496 40.4414 51.707 40.4414 51.5586L41.2266 51.6641Z" fill="#81C8BE"/>
<path d="M51.3633 56V50.498H49.6172V49.6602H51.3633V49.2148C51.3633 48.8086 51.4219 48.4531 51.5391 48.1484C51.6602 47.8398 51.8301 47.582 52.0488 47.375C52.2637 47.168 52.5234 47.0117 52.8281 46.9062C53.1328 46.8008 53.4727 46.748 53.8477 46.748C54.0039 46.748 54.1582 46.7578 54.3105 46.7773C54.4629 46.793 54.6133 46.8145 54.7617 46.8418C54.8594 46.8613 54.957 46.8828 55.0547 46.9062C55.1523 46.9258 55.252 46.9492 55.3535 46.9766L55.2246 47.873C55.0645 47.8184 54.877 47.7715 54.6621 47.7324C54.4512 47.6895 54.2246 47.668 53.9824 47.668C53.7363 47.668 53.5176 47.6992 53.3262 47.7617C53.1387 47.8203 52.9824 47.9102 52.8574 48.0312C52.7246 48.1562 52.623 48.3184 52.5527 48.5176C52.4863 48.7168 52.4531 48.9492 52.4531 49.2148V49.6602H54.8965V50.498H52.4531V56H51.3633ZM61.1191 56C61.0762 55.918 61.041 55.8164 61.0137 55.6953C60.9902 55.5703 60.9727 55.4414 60.9609 55.3086C60.8516 55.418 60.7285 55.5215 60.5918 55.6191C60.459 55.7168 60.3125 55.8027 60.1523 55.877C59.9883 55.9512 59.8145 56.0098 59.6309 56.0527C59.4473 56.0957 59.252 56.1172 59.0449 56.1172C58.709 56.1172 58.4043 56.0684 58.1309 55.9707C57.8613 55.873 57.6328 55.7402 57.4453 55.5723C57.2539 55.4082 57.1055 55.2129 57 54.9863C56.8984 54.7559 56.8477 54.5078 56.8477 54.2422C56.8477 53.8945 56.916 53.5898 57.0527 53.3281C57.1934 53.0664 57.3906 52.8477 57.6445 52.6719C57.8984 52.5 58.2031 52.3711 58.5586 52.2852C58.918 52.1992 59.3184 52.1562 59.7598 52.1562H60.9434V51.6582C60.9434 51.4668 60.9082 51.2949 60.8379 51.1426C60.7676 50.9902 60.668 50.8594 60.5391 50.75C60.4102 50.6445 60.252 50.5625 60.0645 50.5039C59.8809 50.4453 59.6738 50.416 59.4434 50.416C59.2285 50.416 59.0352 50.4434 58.8633 50.498C58.6953 50.5527 58.5527 50.625 58.4355 50.7148C58.3184 50.8047 58.2266 50.9121 58.1602 51.0371C58.0977 51.1582 58.0664 51.2852 58.0664 51.418H56.9766C56.9805 51.1875 57.0391 50.9609 57.1523 50.7383C57.2695 50.5156 57.4375 50.3145 57.6562 50.1348C57.8711 49.959 58.1328 49.8164 58.4414 49.707C58.7539 49.5977 59.1074 49.543 59.502 49.543C59.8613 49.543 60.1953 49.5879 60.5039 49.6777C60.8125 49.7637 61.0801 49.8945 61.3066 50.0703C61.5293 50.25 61.7051 50.4727 61.834 50.7383C61.9629 51.0039 62.0273 51.3145 62.0273 51.6699V54.6172C62.0273 54.8281 62.0469 55.0527 62.0859 55.291C62.125 55.5254 62.1797 55.7305 62.25 55.9062V56H61.1191ZM59.2031 55.1738C59.4141 55.1738 59.6113 55.1465 59.7949 55.0918C59.9785 55.0371 60.1465 54.9648 60.2988 54.875C60.4473 54.7852 60.5762 54.6836 60.6855 54.5703C60.7949 54.4531 60.8809 54.332 60.9434 54.207V52.9238H59.9355C59.5605 52.9238 59.2324 52.957 58.9512 53.0234C58.6738 53.0859 58.4531 53.1836 58.2891 53.3164C58.1719 53.4102 58.082 53.5215 58.0195 53.6504C57.9609 53.7793 57.9316 53.9258 57.9316 54.0898C57.9316 54.2461 57.957 54.3906 58.0078 54.5234C58.0625 54.6562 58.1426 54.7695 58.248 54.8633C58.3535 54.9609 58.4863 55.0371 58.6465 55.0918C58.8066 55.1465 58.9922 55.1738 59.2031 55.1738ZM68.373 54.3184C68.373 54.1895 68.3477 54.0742 68.2969 53.9727C68.2461 53.8672 68.1602 53.7715 68.0391 53.6855C67.918 53.5996 67.7578 53.5215 67.5586 53.4512C67.3594 53.377 67.1113 53.3105 66.8145 53.252C66.4512 53.1777 66.1191 53.0879 65.8184 52.9824C65.5215 52.877 65.2676 52.75 65.0566 52.6016C64.8418 52.457 64.6758 52.2871 64.5586 52.0918C64.4414 51.8926 64.3828 51.6621 64.3828 51.4004C64.3828 51.1426 64.4434 50.9023 64.5645 50.6797C64.6855 50.4531 64.8555 50.2559 65.0742 50.0879C65.293 49.9199 65.5527 49.7871 65.8535 49.6895C66.1582 49.5918 66.4922 49.543 66.8555 49.543C67.2461 49.543 67.5977 49.5938 67.9102 49.6953C68.2227 49.7969 68.4883 49.9375 68.707 50.1172C68.9258 50.2969 69.0938 50.5078 69.2109 50.75C69.332 50.9883 69.3926 51.2461 69.3926 51.5234H68.3086C68.3086 51.3867 68.2734 51.2539 68.2031 51.125C68.1328 50.9922 68.0352 50.875 67.9102 50.7734C67.7852 50.6719 67.6328 50.5898 67.4531 50.5273C67.2773 50.4648 67.0781 50.4336 66.8555 50.4336C66.625 50.4336 66.4219 50.459 66.2461 50.5098C66.0742 50.5605 65.9316 50.6289 65.8184 50.7148C65.7012 50.8008 65.6133 50.9004 65.5547 51.0137C65.4961 51.127 65.4668 51.2441 65.4668 51.3652C65.4668 51.4902 65.4902 51.6016 65.5371 51.6992C65.584 51.7969 65.666 51.8848 65.7832 51.9629C65.8965 52.041 66.0488 52.1113 66.2402 52.1738C66.4355 52.2363 66.6816 52.2969 66.9785 52.3555C67.3691 52.4375 67.7188 52.5332 68.0273 52.6426C68.3359 52.748 68.5957 52.875 68.8066 53.0234C69.0176 53.1758 69.1777 53.3516 69.2871 53.5508C69.4004 53.75 69.457 53.9805 69.457 54.2422C69.457 54.5234 69.3926 54.7793 69.2637 55.0098C69.1387 55.2402 68.9629 55.4375 68.7363 55.6016C68.5098 55.7656 68.2383 55.8926 67.9219 55.9824C67.6055 56.0723 67.2598 56.1172 66.8848 56.1172C66.4551 56.1172 66.0723 56.0605 65.7363 55.9473C65.4004 55.8301 65.1172 55.6758 64.8867 55.4844C64.6523 55.2969 64.4727 55.0781 64.3477 54.8281C64.2266 54.5781 64.166 54.3184 64.166 54.0488H65.25C65.2656 54.2715 65.3242 54.459 65.4258 54.6113C65.5312 54.7637 65.6621 54.8867 65.8184 54.9805C65.9707 55.0742 66.1406 55.1406 66.3281 55.1797C66.5156 55.2188 66.7012 55.2383 66.8848 55.2383C67.1738 55.2383 67.4258 55.2051 67.6406 55.1387C67.8555 55.0684 68.0234 54.9727 68.1445 54.8516C68.2188 54.7773 68.2754 54.6953 68.3145 54.6055C68.3535 54.5156 68.373 54.4199 68.373 54.3184ZM73.9336 48.125V49.6602H76.3477V50.498H73.9336V53.9434C73.9336 54.1895 73.9648 54.3926 74.0273 54.5527C74.0898 54.7129 74.1758 54.8398 74.2852 54.9336C74.3945 55.0312 74.5195 55.0996 74.6602 55.1387C74.8047 55.1777 74.957 55.1973 75.1172 55.1973C75.2344 55.1973 75.3555 55.1914 75.4805 55.1797C75.6055 55.1641 75.7285 55.1465 75.8496 55.127C75.9668 55.1074 76.0762 55.0879 76.1777 55.0684C76.2832 55.0449 76.3691 55.0254 76.4355 55.0098L76.5879 55.7773C76.498 55.832 76.3887 55.8809 76.2598 55.9238C76.1309 55.9629 75.9902 55.9961 75.8379 56.0234C75.6855 56.0547 75.5234 56.0781 75.3516 56.0938C75.1836 56.1094 75.0156 56.1172 74.8477 56.1172C74.5664 56.1172 74.3027 56.0781 74.0566 56C73.8145 55.918 73.6035 55.7891 73.4238 55.6133C73.2441 55.4414 73.1016 55.2188 72.9961 54.9453C72.8945 54.668 72.8438 54.334 72.8438 53.9434V50.498H71.1797V49.6602H72.8438V48.125H73.9336ZM80.1914 56V50.498H78.4453V49.6602H80.1914V49.2148C80.1914 48.8086 80.25 48.4531 80.3672 48.1484C80.4883 47.8398 80.6582 47.582 80.877 47.375C81.0918 47.168 81.3516 47.0117 81.6562 46.9062C81.9609 46.8008 82.3008 46.748 82.6758 46.748C82.832 46.748 82.9863 46.7578 83.1387 46.7773C83.291 46.793 83.4414 46.8145 83.5898 46.8418C83.6875 46.8613 83.7852 46.8828 83.8828 46.9062C83.9805 46.9258 84.0801 46.9492 84.1816 46.9766L84.0527 47.873C83.8926 47.8184 83.7051 47.7715 83.4902 47.7324C83.2793 47.6895 83.0527 47.668 82.8105 47.668C82.5645 47.668 82.3457 47.6992 82.1543 47.7617C81.9668 47.8203 81.8105 47.9102 81.6855 48.0312C81.5527 48.1562 81.4512 48.3184 81.3809 48.5176C81.3145 48.7168 81.2812 48.9492 81.2812 49.2148V49.6602H83.7246V50.498H81.2812V56H80.1914ZM88.582 56.1172C88.1367 56.1172 87.7266 56.041 87.3516 55.8887C86.9805 55.7363 86.6621 55.5234 86.3965 55.25C86.1309 54.9766 85.9238 54.6523 85.7754 54.2773C85.627 53.9023 85.5527 53.4941 85.5527 53.0527V52.8066C85.5527 52.2949 85.6348 51.8379 85.7988 51.4355C85.9629 51.0293 86.1816 50.6855 86.4551 50.4043C86.7246 50.127 87.0312 49.9141 87.375 49.7656C87.7227 49.6172 88.0781 49.543 88.4414 49.543C88.8984 49.543 89.2969 49.623 89.6367 49.7832C89.9805 49.9395 90.2656 50.1562 90.4922 50.4336C90.7188 50.7148 90.8867 51.0449 90.9961 51.4238C91.1094 51.8027 91.166 52.2129 91.166 52.6543V53.1406H86.6367V53.1816C86.6641 53.4902 86.7246 53.7617 86.8184 53.9961C86.916 54.2305 87.0488 54.4375 87.2168 54.6172C87.3887 54.8086 87.5957 54.959 87.8379 55.0684C88.0801 55.1777 88.3477 55.2324 88.6406 55.2324C89.0273 55.2324 89.3711 55.1543 89.6719 54.998C89.9727 54.8418 90.2227 54.6348 90.4219 54.377L91.084 54.8926C90.873 55.2129 90.5566 55.498 90.1348 55.748C89.7168 55.9941 89.1992 56.1172 88.582 56.1172ZM88.4414 50.4336C88.2227 50.4336 88.0156 50.4746 87.8203 50.5566C87.625 50.6348 87.4492 50.75 87.293 50.9023C87.1367 51.0586 87.0039 51.25 86.8945 51.4766C86.7891 51.6992 86.7148 51.957 86.6719 52.25H90.082V52.1973C90.082 52.002 90.0449 51.793 89.9707 51.5703C89.8965 51.3438 89.793 51.1484 89.6602 50.9844C89.5273 50.8203 89.3594 50.6875 89.1562 50.5859C88.957 50.4844 88.7188 50.4336 88.4414 50.4336ZM95.5547 48.125V49.6602H97.9688V50.498H95.5547V53.9434C95.5547 54.1895 95.5859 54.3926 95.6484 54.5527C95.7109 54.7129 95.7969 54.8398 95.9062 54.9336C96.0156 55.0312 96.1406 55.0996 96.2812 55.1387C96.4258 55.1777 96.5781 55.1973 96.7383 55.1973C96.8555 55.1973 96.9766 55.1914 97.1016 55.1797C97.2266 55.1641 97.3496 55.1465 97.4707 55.127C97.5879 55.1074 97.6973 55.0879 97.7988 55.0684C97.9043 55.0449 97.9902 55.0254 98.0566 55.0098L98.209 55.7773C98.1191 55.832 98.0098 55.8809 97.8809 55.9238C97.752 55.9629 97.6113 55.9961 97.459 56.0234C97.3066 56.0547 97.1445 56.0781 96.9727 56.0938C96.8047 56.1094 96.6367 56.1172 96.4688 56.1172C96.1875 56.1172 95.9238 56.0781 95.6777 56C95.4355 55.918 95.2246 55.7891 95.0449 55.6133C94.8652 55.4414 94.7227 55.2188 94.6172 54.9453C94.5156 54.668 94.4648 54.334 94.4648 53.9434V50.498H92.8008V49.6602H94.4648V48.125H95.5547ZM102.896 55.2383C103.092 55.2383 103.281 55.207 103.465 55.1445C103.652 55.082 103.818 54.9941 103.963 54.8809C104.107 54.7715 104.223 54.6426 104.309 54.4941C104.398 54.3418 104.445 54.1777 104.449 54.002H105.475C105.471 54.2832 105.396 54.5527 105.252 54.8105C105.111 55.0645 104.922 55.2871 104.684 55.4785C104.445 55.6738 104.172 55.8301 103.863 55.9473C103.555 56.0605 103.232 56.1172 102.896 56.1172C102.416 56.1172 101.996 56.0312 101.637 55.8594C101.277 55.6875 100.979 55.4551 100.74 55.1621C100.498 54.873 100.316 54.5391 100.195 54.1602C100.074 53.7773 100.014 53.375 100.014 52.9531V52.707C100.014 52.2891 100.074 51.8887 100.195 51.5059C100.316 51.123 100.498 50.7852 100.74 50.4922C100.979 50.2031 101.277 49.9727 101.637 49.8008C101.996 49.6289 102.416 49.543 102.896 49.543C103.271 49.543 103.615 49.6035 103.928 49.7246C104.244 49.8418 104.518 50.002 104.748 50.2051C104.975 50.4121 105.152 50.6562 105.281 50.9375C105.41 51.2188 105.475 51.5195 105.475 51.8398H104.449C104.445 51.6484 104.402 51.4688 104.32 51.3008C104.242 51.1289 104.135 50.9785 103.998 50.8496C103.861 50.7207 103.697 50.6191 103.506 50.5449C103.318 50.4707 103.115 50.4336 102.896 50.4336C102.561 50.4336 102.277 50.502 102.047 50.6387C101.82 50.7715 101.637 50.9453 101.496 51.1602C101.355 51.3789 101.254 51.623 101.191 51.8926C101.133 52.1621 101.104 52.4336 101.104 52.707V52.9531C101.104 53.2305 101.133 53.5059 101.191 53.7793C101.254 54.0488 101.355 54.291 101.496 54.5059C101.633 54.7246 101.814 54.9023 102.041 55.0391C102.271 55.1719 102.557 55.2383 102.896 55.2383ZM108.486 50.6035C108.572 50.4746 108.668 50.3574 108.773 50.252C108.879 50.1426 108.99 50.0469 109.107 49.9648C109.295 49.8281 109.5 49.7246 109.723 49.6543C109.949 49.584 110.189 49.5469 110.443 49.543C110.775 49.543 111.076 49.5918 111.346 49.6895C111.619 49.7832 111.852 49.9316 112.043 50.1348C112.234 50.3379 112.381 50.5957 112.482 50.9082C112.588 51.2168 112.641 51.584 112.641 52.0098V56H111.557V51.998C111.557 51.748 111.527 51.5293 111.469 51.3418C111.41 51.1504 111.324 50.9922 111.211 50.8672C111.09 50.7305 110.938 50.6289 110.754 50.5625C110.57 50.4922 110.359 50.459 110.121 50.4629C109.926 50.4629 109.74 50.4902 109.564 50.5449C109.389 50.5996 109.227 50.6777 109.078 50.7793C108.961 50.8574 108.852 50.9492 108.75 51.0547C108.652 51.1562 108.564 51.2695 108.486 51.3945V56H107.402V47H108.486V50.6035Z" fill="#A5ADCE"/>
<path d="M24.6562 80.7324H23.6836L27.2461 71.4688H28.2129L24.6562 80.7324ZM30.7676 71.4688H31.7461L35.3086 80.7324H34.3301L30.7676 71.4688ZM42.9023 80.8848H37.5293V80H42.9023V80.8848ZM46.2773 80.7324H45.3047L48.8672 71.4688H49.834L46.2773 80.7324ZM52.3887 71.4688H53.3672L56.9297 80.7324H55.9512L52.3887 71.4688ZM17.0918 90.5371C17.0918 89.9785 17.1348 89.4531 17.2207 88.9609C17.3105 88.4688 17.4297 88.0117 17.5781 87.5898C17.7266 87.1719 17.8965 86.7891 18.0879 86.4414C18.2832 86.0938 18.4883 85.7852 18.7031 85.5156C18.9141 85.2461 19.127 85.0156 19.3418 84.8242C19.5566 84.6328 19.7617 84.4824 19.957 84.373L20.1855 85.0879C20.0605 85.1816 19.9336 85.2949 19.8047 85.4277C19.6797 85.5605 19.5566 85.709 19.4355 85.873C19.2559 86.127 19.084 86.4258 18.9199 86.7695C18.7559 87.1094 18.6191 87.4824 18.5098 87.8887C18.4043 88.2559 18.3223 88.6602 18.2637 89.1016C18.2051 89.543 18.1758 90.0176 18.1758 90.5254V90.6074C18.1758 91.0957 18.2031 91.5527 18.2578 91.9785C18.3125 92.4043 18.3867 92.7969 18.4805 93.1562C18.582 93.5195 18.6992 93.8555 18.832 94.1641C18.9648 94.4766 19.1035 94.7559 19.248 95.002C19.3965 95.2363 19.5488 95.4434 19.7051 95.623C19.8652 95.8066 20.0254 95.9629 20.1855 96.0918L19.957 96.7539C19.7617 96.6445 19.5547 96.4941 19.3359 96.3027C19.1211 96.1152 18.9082 95.8848 18.6973 95.6113C18.4824 95.3418 18.2773 95.0332 18.082 94.6855C17.8906 94.3418 17.7227 93.959 17.5781 93.5371C17.4297 93.1191 17.3105 92.6641 17.2207 92.1719C17.1348 91.6797 17.0918 91.1543 17.0918 90.5957V90.5371ZM30.1289 90.7715C30.1289 90.3145 30.1953 89.8906 30.3281 89.5C30.4609 89.1055 30.6523 88.7637 30.9023 88.4746C31.1484 88.1855 31.4492 87.959 31.8047 87.7949C32.1602 87.627 32.5605 87.543 33.0059 87.543C33.4551 87.543 33.8574 87.627 34.2129 87.7949C34.5723 87.959 34.877 88.1855 35.127 88.4746C35.373 88.7637 35.5625 89.1055 35.6953 89.5C35.8281 89.8906 35.8945 90.3145 35.8945 90.7715V90.9004C35.8945 91.3574 35.8281 91.7812 35.6953 92.1719C35.5625 92.5625 35.373 92.9023 35.127 93.1914C34.877 93.4805 34.5742 93.707 34.2188 93.8711C33.8633 94.0352 33.4629 94.1172 33.0176 94.1172C32.5684 94.1172 32.1641 94.0352 31.8047 93.8711C31.4492 93.707 31.1484 93.4805 30.9023 93.1914C30.6523 92.9023 30.4609 92.5625 30.3281 92.1719C30.1953 91.7812 30.1289 91.3574 30.1289 90.9004V90.7715ZM31.2129 90.9004C31.2129 91.2129 31.25 91.5117 31.3242 91.7969C31.3984 92.0781 31.5117 92.3262 31.6641 92.541C31.8125 92.7559 32 92.9258 32.2266 93.0508C32.4531 93.1758 32.7168 93.2383 33.0176 93.2383C33.3145 93.2383 33.5742 93.1758 33.7969 93.0508C34.0234 92.9258 34.2129 92.7559 34.3652 92.541C34.5137 92.3262 34.625 92.0781 34.6992 91.7969C34.7734 91.5117 34.8105 91.2129 34.8105 90.9004V90.7715C34.8105 90.4629 34.7715 90.168 34.6934 89.8867C34.6191 89.6016 34.5078 89.3516 34.3594 89.1367C34.207 88.9219 34.0176 88.752 33.791 88.627C33.5684 88.498 33.3066 88.4336 33.0059 88.4336C32.7051 88.4336 32.4434 88.498 32.2207 88.627C31.998 88.752 31.8125 88.9219 31.6641 89.1367C31.5117 89.3516 31.3984 89.6016 31.3242 89.8867C31.25 90.168 31.2129 90.4629 31.2129 90.7715V90.9004ZM39.5273 93.2969C39.5273 93.0664 39.5977 92.8691 39.7383 92.7051C39.8789 92.541 40.0918 92.459 40.377 92.459C40.6582 92.459 40.8711 92.541 41.0156 92.7051C41.1641 92.8652 41.2383 93.0625 41.2383 93.2969C41.2383 93.5273 41.1641 93.7207 41.0156 93.877C40.8672 94.0332 40.6543 94.1113 40.377 94.1113C40.0957 94.1113 39.8828 94.0332 39.7383 93.877C39.5977 93.7168 39.5273 93.5234 39.5273 93.2969ZM44.543 90.7715C44.543 90.3145 44.6094 89.8906 44.7422 89.5C44.875 89.1055 45.0664 88.7637 45.3164 88.4746C45.5625 88.1855 45.8633 87.959 46.2188 87.7949C46.5742 87.627 46.9746 87.543 47.4199 87.543C47.8691 87.543 48.2715 87.627 48.627 87.7949C48.9863 87.959 49.291 88.1855 49.541 88.4746C49.7871 88.7637 49.9766 89.1055 50.1094 89.5C50.2422 89.8906 50.3086 90.3145 50.3086 90.7715V90.9004C50.3086 91.3574 50.2422 91.7812 50.1094 92.1719C49.9766 92.5625 49.7871 92.9023 49.541 93.1914C49.291 93.4805 48.9883 93.707 48.6328 93.8711C48.2773 94.0352 47.877 94.1172 47.4316 94.1172C46.9824 94.1172 46.5781 94.0352 46.2188 93.8711C45.8633 93.707 45.5625 93.4805 45.3164 93.1914C45.0664 92.9023 44.875 92.5625 44.7422 92.1719C44.6094 91.7812 44.543 91.3574 44.543 90.9004V90.7715ZM45.627 90.9004C45.627 91.2129 45.6641 91.5117 45.7383 91.7969C45.8125 92.0781 45.9258 92.3262 46.0781 92.541C46.2266 92.7559 46.4141 92.9258 46.6406 93.0508C46.8672 93.1758 47.1309 93.2383 47.4316 93.2383C47.7285 93.2383 47.9883 93.1758 48.2109 93.0508C48.4375 92.9258 48.627 92.7559 48.7793 92.541C48.9277 92.3262 49.0391 92.0781 49.1133 91.7969C49.1875 91.5117 49.2246 91.2129 49.2246 90.9004V90.7715C49.2246 90.4629 49.1855 90.168 49.1074 89.8867C49.0332 89.6016 48.9219 89.3516 48.7734 89.1367C48.6211 88.9219 48.4316 88.752 48.2051 88.627C47.9824 88.498 47.7207 88.4336 47.4199 88.4336C47.1191 88.4336 46.8574 88.498 46.6348 88.627C46.4121 88.752 46.2266 88.9219 46.0781 89.1367C45.9258 89.3516 45.8125 89.6016 45.7383 89.8867C45.6641 90.168 45.627 90.4629 45.627 90.7715V90.9004ZM63.2168 90.5957C63.2168 91.1543 63.1719 91.6797 63.082 92.1719C62.9961 92.6641 62.8789 93.1191 62.7305 93.5371C62.582 93.959 62.4102 94.3418 62.2148 94.6855C62.0234 95.0332 61.8223 95.3418 61.6113 95.6113C61.3965 95.8848 61.1797 96.1152 60.9609 96.3027C60.7461 96.4941 60.541 96.6445 60.3457 96.7539L60.1172 96.0918C60.2812 95.9707 60.4473 95.8145 60.6152 95.623C60.7832 95.4316 60.9434 95.2109 61.0957 94.9609C61.2402 94.707 61.3789 94.4199 61.5117 94.0996C61.6484 93.7832 61.7598 93.4355 61.8457 93.0566C61.9355 92.7051 62.0039 92.3262 62.0508 91.9199C62.1016 91.5098 62.127 91.0723 62.127 90.6074V90.5254C62.127 89.998 62.0938 89.5195 62.0273 89.0898C61.9648 88.6602 61.8945 88.2949 61.8164 87.9941C61.7031 87.5645 61.5664 87.1797 61.4062 86.8398C61.2461 86.4961 61.082 86.1973 60.9141 85.9434C60.7852 85.7441 60.6523 85.5703 60.5156 85.4219C60.3789 85.2695 60.2461 85.1406 60.1172 85.0352L60.3457 84.373C60.541 84.4824 60.748 84.6328 60.9668 84.8242C61.1855 85.0156 61.4004 85.2461 61.6113 85.5156C61.8301 85.793 62.0352 86.1016 62.2266 86.4414C62.418 86.7812 62.5859 87.1641 62.7305 87.5898C62.8711 88 62.9863 88.4453 63.0762 88.9258C63.1699 89.4023 63.2168 89.9395 63.2168 90.5371V90.5957ZM23.25 106.846V105.721L27.041 104.291L27.3926 104.191L27.041 104.08L23.25 102.674V101.555L28.4238 103.77V104.625L23.25 106.846ZM37.9746 104.033L39.8496 99.4688H40.5938L42.4629 104.033H41.4609L40.3008 101.186L40.2129 100.787L40.125 101.186L38.9824 104.033H37.9746ZM57 106.852L52.0312 104.631V103.775L57 101.561V102.709L53.4141 104.115L53.1035 104.215L53.4141 104.32L57 105.703V106.852Z" fill="#A5ADCE"/>
<path d="M76.916 67V76H75.8262V67H76.916ZM80.7891 69.6602L78.0234 72.6191L76.4766 74.2246L76.3887 73.0703L77.4961 71.7461L79.4648 69.6602H80.7891ZM79.7988 76L77.5371 72.9766L78.0996 72.0098L81.0762 76H79.7988ZM85.6465 74.916V71.6523C85.6465 71.4023 85.5957 71.1855 85.4941 71.002C85.3965 70.8145 85.248 70.6699 85.0488 70.5684C84.8496 70.4668 84.6035 70.416 84.3105 70.416C84.0371 70.416 83.7969 70.4629 83.5898 70.5566C83.3867 70.6504 83.2266 70.7734 83.1094 70.9258C82.9961 71.0781 82.9395 71.2422 82.9395 71.418H81.8555C81.8555 71.1914 81.9141 70.9668 82.0312 70.7441C82.1484 70.5215 82.3164 70.3203 82.5352 70.1406C82.7578 69.957 83.0234 69.8125 83.332 69.707C83.6445 69.5977 83.9922 69.543 84.375 69.543C84.8359 69.543 85.2422 69.6211 85.5938 69.7773C85.9492 69.9336 86.2266 70.1699 86.4258 70.4863C86.6289 70.7988 86.7305 71.1914 86.7305 71.6641V74.6172C86.7305 74.8281 86.748 75.0527 86.7832 75.291C86.8223 75.5293 86.8789 75.7344 86.9531 75.9062V76H85.8223C85.7676 75.875 85.7246 75.709 85.6934 75.502C85.6621 75.291 85.6465 75.0957 85.6465 74.916ZM85.834 72.1562L85.8457 72.918H84.75C84.4414 72.918 84.166 72.9434 83.9238 72.9941C83.6816 73.041 83.4785 73.1133 83.3145 73.2109C83.1504 73.3086 83.0254 73.4316 82.9395 73.5801C82.8535 73.7246 82.8105 73.8945 82.8105 74.0898C82.8105 74.2891 82.8555 74.4707 82.9453 74.6348C83.0352 74.7988 83.1699 74.9297 83.3496 75.0273C83.5332 75.1211 83.7578 75.168 84.0234 75.168C84.3555 75.168 84.6484 75.0977 84.9023 74.957C85.1562 74.8164 85.3574 74.6445 85.5059 74.4414C85.6582 74.2383 85.7402 74.041 85.752 73.8496L86.2148 74.3711C86.1875 74.5352 86.1133 74.7168 85.9922 74.916C85.8711 75.1152 85.709 75.3066 85.5059 75.4902C85.3066 75.6699 85.0684 75.8203 84.791 75.9414C84.5176 76.0586 84.209 76.1172 83.8652 76.1172C83.4355 76.1172 83.0586 76.0332 82.7344 75.8652C82.4141 75.6973 82.1641 75.4727 81.9844 75.1914C81.8086 74.9062 81.7207 74.5879 81.7207 74.2363C81.7207 73.8965 81.7871 73.5977 81.9199 73.3398C82.0527 73.0781 82.2441 72.8613 82.4941 72.6895C82.7441 72.5137 83.0449 72.3809 83.3965 72.291C83.748 72.2012 84.1406 72.1562 84.5742 72.1562H85.834ZM89.5195 70.6562V76H88.4355V69.6602H89.4902L89.5195 70.6562ZM91.5 69.625L91.4941 70.6328C91.4043 70.6133 91.3184 70.6016 91.2363 70.5977C91.1582 70.5898 91.0684 70.5859 90.9668 70.5859C90.7168 70.5859 90.4961 70.625 90.3047 70.7031C90.1133 70.7812 89.9512 70.8906 89.8184 71.0312C89.6855 71.1719 89.5801 71.3398 89.502 71.5352C89.4277 71.7266 89.3789 71.9375 89.3555 72.168L89.0508 72.3438C89.0508 71.9609 89.0879 71.6016 89.1621 71.2656C89.2402 70.9297 89.3594 70.6328 89.5195 70.375C89.6797 70.1133 89.8828 69.9102 90.1289 69.7656C90.3789 69.6172 90.6758 69.543 91.0195 69.543C91.0977 69.543 91.1875 69.5527 91.2891 69.5723C91.3906 69.5879 91.4609 69.6055 91.5 69.625ZM92.0977 72.9004V72.7656C92.0977 72.3086 92.1641 71.8848 92.2969 71.4941C92.4297 71.0996 92.6211 70.7578 92.8711 70.4688C93.1211 70.1758 93.4238 69.9492 93.7793 69.7891C94.1348 69.625 94.5332 69.543 94.9746 69.543C95.4199 69.543 95.8203 69.625 96.1758 69.7891C96.5352 69.9492 96.8398 70.1758 97.0898 70.4688C97.3438 70.7578 97.5371 71.0996 97.6699 71.4941C97.8027 71.8848 97.8691 72.3086 97.8691 72.7656V72.9004C97.8691 73.3574 97.8027 73.7812 97.6699 74.1719C97.5371 74.5625 97.3438 74.9043 97.0898 75.1973C96.8398 75.4863 96.5371 75.7129 96.1816 75.877C95.8301 76.0371 95.4316 76.1172 94.9863 76.1172C94.541 76.1172 94.1406 76.0371 93.7852 75.877C93.4297 75.7129 93.125 75.4863 92.8711 75.1973C92.6211 74.9043 92.4297 74.5625 92.2969 74.1719C92.1641 73.7812 92.0977 73.3574 92.0977 72.9004ZM93.1816 72.7656V72.9004C93.1816 73.2168 93.2188 73.5156 93.293 73.7969C93.3672 74.0742 93.4785 74.3203 93.627 74.5352C93.7793 74.75 93.9688 74.9199 94.1953 75.0449C94.4219 75.166 94.6855 75.2266 94.9863 75.2266C95.2832 75.2266 95.543 75.166 95.7656 75.0449C95.9922 74.9199 96.1797 74.75 96.3281 74.5352C96.4766 74.3203 96.5879 74.0742 96.6621 73.7969C96.7402 73.5156 96.7793 73.2168 96.7793 72.9004V72.7656C96.7793 72.4531 96.7402 72.1582 96.6621 71.8809C96.5879 71.5996 96.4746 71.3516 96.3223 71.1367C96.1738 70.918 95.9863 70.7461 95.7598 70.6211C95.5371 70.4961 95.2754 70.4336 94.9746 70.4336C94.6777 70.4336 94.416 70.4961 94.1895 70.6211C93.9668 70.7461 93.7793 70.918 93.627 71.1367C93.4785 71.3516 93.3672 71.5996 93.293 71.8809C93.2188 72.1582 93.1816 72.4531 93.1816 72.7656ZM100.406 67V76H99.3164V67H100.406Z" fill="#CA9EE6"/>
<path d="M111.492 73.0527C111.477 73.4121 111.422 73.7734 111.328 74.1367C111.234 74.4961 111.094 74.8262 110.906 75.127C110.719 75.4277 110.475 75.6699 110.174 75.8535C109.877 76.0332 109.518 76.123 109.096 76.123C108.826 76.123 108.59 76.0762 108.387 75.9824C108.188 75.8848 108.023 75.7461 107.895 75.5664C107.77 75.3867 107.682 75.1699 107.631 74.916C107.584 74.6621 107.576 74.3789 107.607 74.0664L107.906 70.8203H108.768L108.469 74.0664C108.445 74.3516 108.451 74.584 108.486 74.7637C108.525 74.9434 108.584 75.082 108.662 75.1797C108.74 75.2734 108.828 75.3379 108.926 75.373C109.027 75.4082 109.125 75.4258 109.219 75.4258C109.453 75.4258 109.662 75.3652 109.846 75.2441C110.029 75.1191 110.184 74.9492 110.309 74.7344C110.438 74.5156 110.537 74.2637 110.607 73.9785C110.678 73.6895 110.721 73.3809 110.736 73.0527C110.764 72.4707 110.736 71.9355 110.654 71.4473C110.576 70.959 110.441 70.5254 110.25 70.1465C110.062 69.7676 109.816 69.4473 109.512 69.1855C109.207 68.9238 108.844 68.7246 108.422 68.5879C108 68.4512 107.518 68.3828 106.975 68.3828C106.482 68.3828 106.027 68.459 105.609 68.6113C105.195 68.7598 104.822 68.9746 104.49 69.2559C104.162 69.5371 103.879 69.875 103.641 70.2695C103.406 70.6641 103.221 71.1094 103.084 71.6055C102.951 72.0977 102.873 72.6289 102.85 73.1992C102.822 73.7852 102.854 74.3242 102.943 74.8164C103.033 75.3047 103.178 75.7402 103.377 76.123C103.58 76.5098 103.836 76.8359 104.145 77.1016C104.453 77.3711 104.811 77.5742 105.217 77.7109C105.623 77.8516 106.076 77.9219 106.576 77.9219C106.92 77.9219 107.268 77.8809 107.619 77.7988C107.975 77.7168 108.271 77.6055 108.51 77.4648L108.732 78.1328C108.459 78.3086 108.117 78.4395 107.707 78.5254C107.301 78.6113 106.916 78.6543 106.553 78.6543C105.959 78.6543 105.416 78.5723 104.924 78.4082C104.436 78.248 104.002 78.0117 103.623 77.6992C103.248 77.3906 102.936 77.0137 102.686 76.5684C102.436 76.127 102.252 75.623 102.135 75.0566C102.018 74.4902 101.973 73.8711 102 73.1992C102.027 72.5586 102.123 71.9551 102.287 71.3887C102.455 70.8223 102.684 70.3086 102.973 69.8477C103.262 69.3867 103.605 68.9902 104.004 68.6582C104.406 68.3223 104.857 68.0645 105.357 67.8848C105.861 67.7051 106.408 67.6152 106.998 67.6152C107.6 67.6152 108.145 67.6973 108.633 67.8613C109.121 68.0254 109.549 68.2617 109.916 68.5703C110.287 68.8789 110.594 69.2559 110.836 69.7012C111.078 70.1465 111.254 70.6504 111.363 71.2129C111.477 71.7754 111.52 72.3887 111.492 73.0527ZM105.475 73.5508C105.447 73.8242 105.447 74.0684 105.475 74.2832C105.502 74.498 105.555 74.6797 105.633 74.8281C105.711 74.9766 105.812 75.0898 105.938 75.168C106.066 75.2422 106.217 75.2793 106.389 75.2793C106.502 75.2793 106.621 75.252 106.746 75.1973C106.871 75.1387 106.994 75.0488 107.115 74.9277C107.236 74.8066 107.35 74.6484 107.455 74.4531C107.561 74.2578 107.648 74.0234 107.719 73.75L108.105 74.1719C108.016 74.4922 107.898 74.7734 107.754 75.0156C107.613 75.2578 107.455 75.4609 107.279 75.625C107.104 75.7891 106.916 75.9141 106.717 76C106.521 76.082 106.322 76.123 106.119 76.123C105.834 76.123 105.584 76.0625 105.369 75.9414C105.154 75.8164 104.98 75.6406 104.848 75.4141C104.715 75.1875 104.621 74.918 104.566 74.6055C104.516 74.2891 104.508 73.9375 104.543 73.5508C104.578 73.1406 104.65 72.7617 104.76 72.4141C104.869 72.0664 105.004 71.7559 105.164 71.4824C105.328 71.209 105.512 70.9766 105.715 70.7852C105.922 70.5938 106.141 70.4492 106.371 70.3516C106.602 70.25 106.838 70.1992 107.08 70.1992C107.502 70.1992 107.834 70.2617 108.076 70.3867C108.318 70.5078 108.549 70.6523 108.768 70.8203L108.27 71.4004C108.156 71.291 108.008 71.1895 107.824 71.0957C107.641 71.002 107.424 70.9551 107.174 70.9551C106.959 70.9551 106.758 71.0098 106.57 71.1191C106.383 71.2285 106.213 71.3926 106.061 71.6113C105.912 71.8301 105.787 72.1016 105.686 72.4258C105.584 72.7461 105.514 73.1211 105.475 73.5508Z" fill="#A5ADCE"/>
<path d="M114.012 71.0137V76H112.928V69.6602H113.953L114.012 71.0137ZM113.754 72.5898L113.303 72.5723C113.307 72.1387 113.371 71.7383 113.496 71.3711C113.621 71 113.797 70.6777 114.023 70.4043C114.25 70.1309 114.52 69.9199 114.832 69.7715C115.148 69.6191 115.498 69.543 115.881 69.543C116.193 69.543 116.475 69.5859 116.725 69.6719C116.975 69.7539 117.188 69.8867 117.363 70.0703C117.543 70.2539 117.68 70.4922 117.773 70.7852C117.867 71.0742 117.914 71.4277 117.914 71.8457V76H116.824V71.834C116.824 71.502 116.775 71.2363 116.678 71.0371C116.58 70.834 116.438 70.6875 116.25 70.5977C116.062 70.5039 115.832 70.457 115.559 70.457C115.289 70.457 115.043 70.5137 114.82 70.627C114.602 70.7402 114.412 70.8965 114.252 71.0957C114.096 71.2949 113.973 71.5234 113.883 71.7812C113.797 72.0352 113.754 72.3047 113.754 72.5898ZM120.738 69.6602V76H119.648V69.6602H120.738ZM119.566 67.9785C119.566 67.8027 119.619 67.6543 119.725 67.5332C119.834 67.4121 119.994 67.3516 120.205 67.3516C120.412 67.3516 120.57 67.4121 120.68 67.5332C120.793 67.6543 120.85 67.8027 120.85 67.9785C120.85 68.1465 120.793 68.291 120.68 68.4121C120.57 68.5293 120.412 68.5879 120.205 68.5879C119.994 68.5879 119.834 68.5293 119.725 68.4121C119.619 68.291 119.566 68.1465 119.566 67.9785ZM123.211 69.6602L124.6 71.9688L126.006 69.6602H127.277L125.203 72.7891L127.342 76H126.088L124.623 73.6211L123.158 76H121.898L124.031 72.7891L121.963 69.6602H123.211ZM128.027 72.9004V72.7656C128.027 72.3086 128.094 71.8848 128.227 71.4941C128.359 71.0996 128.551 70.7578 128.801 70.4688C129.051 70.1758 129.354 69.9492 129.709 69.7891C130.064 69.625 130.463 69.543 130.904 69.543C131.35 69.543 131.75 69.625 132.105 69.7891C132.465 69.9492 132.77 70.1758 133.02 70.4688C133.273 70.7578 133.467 71.0996 133.6 71.4941C133.732 71.8848 133.799 72.3086 133.799 72.7656V72.9004C133.799 73.3574 133.732 73.7812 133.6 74.1719C133.467 74.5625 133.273 74.9043 133.02 75.1973C132.77 75.4863 132.467 75.7129 132.111 75.877C131.76 76.0371 131.361 76.1172 130.916 76.1172C130.471 76.1172 130.07 76.0371 129.715 75.877C129.359 75.7129 129.055 75.4863 128.801 75.1973C128.551 74.9043 128.359 74.5625 128.227 74.1719C128.094 73.7812 128.027 73.3574 128.027 72.9004ZM129.111 72.7656V72.9004C129.111 73.2168 129.148 73.5156 129.223 73.7969C129.297 74.0742 129.408 74.3203 129.557 74.5352C129.709 74.75 129.898 74.9199 130.125 75.0449C130.352 75.166 130.615 75.2266 130.916 75.2266C131.213 75.2266 131.473 75.166 131.695 75.0449C131.922 74.9199 132.109 74.75 132.258 74.5352C132.406 74.3203 132.518 74.0742 132.592 73.7969C132.67 73.5156 132.709 73.2168 132.709 72.9004V72.7656C132.709 72.4531 132.67 72.1582 132.592 71.8809C132.518 71.5996 132.404 71.3516 132.252 71.1367C132.104 70.918 131.916 70.7461 131.689 70.6211C131.467 70.4961 131.205 70.4336 130.904 70.4336C130.607 70.4336 130.346 70.4961 130.119 70.6211C129.896 70.7461 129.709 70.918 129.557 71.1367C129.408 71.3516 129.297 71.5996 129.223 71.8809C129.148 72.1582 129.111 72.4531 129.111 72.7656ZM138.85 74.3184C138.85 74.1621 138.814 74.0176 138.744 73.8848C138.678 73.748 138.539 73.625 138.328 73.5156C138.121 73.4023 137.809 73.3047 137.391 73.2227C137.039 73.1484 136.721 73.0605 136.436 72.959C136.154 72.8574 135.914 72.7344 135.715 72.5898C135.52 72.4453 135.369 72.2754 135.264 72.0801C135.158 71.8848 135.105 71.6562 135.105 71.3945C135.105 71.1445 135.16 70.9082 135.27 70.6855C135.383 70.4629 135.541 70.2656 135.744 70.0938C135.951 69.9219 136.199 69.7871 136.488 69.6895C136.777 69.5918 137.1 69.543 137.455 69.543C137.963 69.543 138.396 69.6328 138.756 69.8125C139.115 69.9922 139.391 70.2324 139.582 70.5332C139.773 70.8301 139.869 71.1602 139.869 71.5234H138.785C138.785 71.3477 138.732 71.1777 138.627 71.0137C138.525 70.8457 138.375 70.707 138.176 70.5977C137.98 70.4883 137.74 70.4336 137.455 70.4336C137.154 70.4336 136.91 70.4805 136.723 70.5742C136.539 70.6641 136.404 70.7793 136.318 70.9199C136.236 71.0605 136.195 71.209 136.195 71.3652C136.195 71.4824 136.215 71.5879 136.254 71.6816C136.297 71.7715 136.371 71.8555 136.477 71.9336C136.582 72.0078 136.73 72.0781 136.922 72.1445C137.113 72.2109 137.357 72.2773 137.654 72.3438C138.174 72.4609 138.602 72.6016 138.938 72.7656C139.273 72.9297 139.523 73.1309 139.688 73.3691C139.852 73.6074 139.934 73.8965 139.934 74.2363C139.934 74.5137 139.875 74.7676 139.758 74.998C139.645 75.2285 139.479 75.4277 139.26 75.5957C139.045 75.7598 138.787 75.8887 138.486 75.9824C138.189 76.0723 137.855 76.1172 137.484 76.1172C136.926 76.1172 136.453 76.0176 136.066 75.8184C135.68 75.6191 135.387 75.3613 135.188 75.0449C134.988 74.7285 134.889 74.3945 134.889 74.043H135.979C135.994 74.3398 136.08 74.5762 136.236 74.752C136.393 74.9238 136.584 75.0469 136.811 75.1211C137.037 75.1914 137.262 75.2266 137.484 75.2266C137.781 75.2266 138.029 75.1875 138.229 75.1094C138.432 75.0312 138.586 74.9238 138.691 74.7871C138.797 74.6504 138.85 74.4941 138.85 74.3184Z" fill="#F4B8E4"/>
<path d="M75 85.316V84.716H85.056V85.316H75ZM85.0547 85.316V84.716H95.1107V85.316H85.0547ZM95.1094 85.316V84.716H105.165V85.316H95.1094ZM105.164 85.316V84.716H115.22V85.316H105.164ZM115.219 85.316V84.716H125.275V85.316H115.219ZM125.273 85.316V84.716H135.329V85.316H125.273ZM135.328 85.316V84.716H145.384V85.316H135.328ZM145.383 85.316V84.716H155.439V85.316H145.383ZM155.438 85.316V84.716H165.494V85.316H155.438ZM165.492 85.316V84.716H175.548V85.316H165.492ZM175.547 85.316V84.716H185.603V85.316H175.547ZM185.602 85.316V84.716H195.658V85.316H185.602ZM195.656 85.316V84.716H205.712V85.316H195.656ZM205.711 85.316V84.716H215.767V85.316H205.711Z" fill="#A5ADCE"/>
<path d="M75.5391 97.9004V97.7656C75.5391 97.3086 75.6055 96.8848 75.7383 96.4941C75.8711 96.0996 76.0625 95.7578 76.3125 95.4688C76.5625 95.1758 76.8652 94.9492 77.2207 94.7891C77.5762 94.625 77.9746 94.543 78.416 94.543C78.8613 94.543 79.2617 94.625 79.6172 94.7891C79.9766 94.9492 80.2812 95.1758 80.5312 95.4688C80.7852 95.7578 80.9785 96.0996 81.1113 96.4941C81.2441 96.8848 81.3105 97.3086 81.3105 97.7656V97.9004C81.3105 98.3574 81.2441 98.7812 81.1113 99.1719C80.9785 99.5625 80.7852 99.9043 80.5312 100.197C80.2812 100.486 79.9785 100.713 79.623 100.877C79.2715 101.037 78.873 101.117 78.4277 101.117C77.9824 101.117 77.582 101.037 77.2266 100.877C76.8711 100.713 76.5664 100.486 76.3125 100.197C76.0625 99.9043 75.8711 99.5625 75.7383 99.1719C75.6055 98.7812 75.5391 98.3574 75.5391 97.9004ZM76.623 97.7656V97.9004C76.623 98.2168 76.6602 98.5156 76.7344 98.7969C76.8086 99.0742 76.9199 99.3203 77.0684 99.5352C77.2207 99.75 77.4102 99.9199 77.6367 100.045C77.8633 100.166 78.127 100.227 78.4277 100.227C78.7246 100.227 78.9844 100.166 79.207 100.045C79.4336 99.9199 79.6211 99.75 79.7695 99.5352C79.918 99.3203 80.0293 99.0742 80.1035 98.7969C80.1816 98.5156 80.2207 98.2168 80.2207 97.9004V97.7656C80.2207 97.4531 80.1816 97.1582 80.1035 96.8809C80.0293 96.5996 79.916 96.3516 79.7637 96.1367C79.6152 95.918 79.4277 95.7461 79.2012 95.6211C78.9785 95.4961 78.7168 95.4336 78.416 95.4336C78.1191 95.4336 77.8574 95.4961 77.6309 95.6211C77.4082 95.7461 77.2207 95.918 77.0684 96.1367C76.9199 96.3516 76.8086 96.5996 76.7344 96.8809C76.6602 97.1582 76.623 97.4531 76.623 97.7656ZM86.3613 99.3184C86.3613 99.1621 86.3262 99.0176 86.2559 98.8848C86.1895 98.748 86.0508 98.625 85.8398 98.5156C85.6328 98.4023 85.3203 98.3047 84.9023 98.2227C84.5508 98.1484 84.2324 98.0605 83.9473 97.959C83.666 97.8574 83.4258 97.7344 83.2266 97.5898C83.0312 97.4453 82.8809 97.2754 82.7754 97.0801C82.6699 96.8848 82.6172 96.6562 82.6172 96.3945C82.6172 96.1445 82.6719 95.9082 82.7812 95.6855C82.8945 95.4629 83.0527 95.2656 83.2559 95.0938C83.4629 94.9219 83.7109 94.7871 84 94.6895C84.2891 94.5918 84.6113 94.543 84.9668 94.543C85.4746 94.543 85.9082 94.6328 86.2676 94.8125C86.627 94.9922 86.9023 95.2324 87.0938 95.5332C87.2852 95.8301 87.3809 96.1602 87.3809 96.5234H86.2969C86.2969 96.3477 86.2441 96.1777 86.1387 96.0137C86.0371 95.8457 85.8867 95.707 85.6875 95.5977C85.4922 95.4883 85.252 95.4336 84.9668 95.4336C84.666 95.4336 84.4219 95.4805 84.2344 95.5742C84.0508 95.6641 83.916 95.7793 83.8301 95.9199C83.748 96.0605 83.707 96.209 83.707 96.3652C83.707 96.4824 83.7266 96.5879 83.7656 96.6816C83.8086 96.7715 83.8828 96.8555 83.9883 96.9336C84.0938 97.0078 84.2422 97.0781 84.4336 97.1445C84.625 97.2109 84.8691 97.2773 85.166 97.3438C85.6855 97.4609 86.1133 97.6016 86.4492 97.7656C86.7852 97.9297 87.0352 98.1309 87.1992 98.3691C87.3633 98.6074 87.4453 98.8965 87.4453 99.2363C87.4453 99.5137 87.3867 99.7676 87.2695 99.998C87.1562 100.229 86.9902 100.428 86.7715 100.596C86.5566 100.76 86.2988 100.889 85.998 100.982C85.7012 101.072 85.3672 101.117 84.9961 101.117C84.4375 101.117 83.9648 101.018 83.5781 100.818C83.1914 100.619 82.8984 100.361 82.6992 100.045C82.5 99.7285 82.4004 99.3945 82.4004 99.043H83.4902C83.5059 99.3398 83.5918 99.5762 83.748 99.752C83.9043 99.9238 84.0957 100.047 84.3223 100.121C84.5488 100.191 84.7734 100.227 84.9961 100.227C85.293 100.227 85.541 100.188 85.7402 100.109C85.9434 100.031 86.0977 99.9238 86.2031 99.7871C86.3086 99.6504 86.3613 99.4941 86.3613 99.3184ZM79.5176 113.318C79.5176 113.162 79.4824 113.018 79.4121 112.885C79.3457 112.748 79.207 112.625 78.9961 112.516C78.7891 112.402 78.4766 112.305 78.0586 112.223C77.707 112.148 77.3887 112.061 77.1035 111.959C76.8223 111.857 76.582 111.734 76.3828 111.59C76.1875 111.445 76.0371 111.275 75.9316 111.08C75.8262 110.885 75.7734 110.656 75.7734 110.395C75.7734 110.145 75.8281 109.908 75.9375 109.686C76.0508 109.463 76.209 109.266 76.4121 109.094C76.6191 108.922 76.8672 108.787 77.1562 108.689C77.4453 108.592 77.7676 108.543 78.123 108.543C78.6309 108.543 79.0645 108.633 79.4238 108.812C79.7832 108.992 80.0586 109.232 80.25 109.533C80.4414 109.83 80.5371 110.16 80.5371 110.523H79.4531C79.4531 110.348 79.4004 110.178 79.2949 110.014C79.1934 109.846 79.043 109.707 78.8438 109.598C78.6484 109.488 78.4082 109.434 78.123 109.434C77.8223 109.434 77.5781 109.48 77.3906 109.574C77.207 109.664 77.0723 109.779 76.9863 109.92C76.9043 110.061 76.8633 110.209 76.8633 110.365C76.8633 110.482 76.8828 110.588 76.9219 110.682C76.9648 110.771 77.0391 110.855 77.1445 110.934C77.25 111.008 77.3984 111.078 77.5898 111.145C77.7812 111.211 78.0254 111.277 78.3223 111.344C78.8418 111.461 79.2695 111.602 79.6055 111.766C79.9414 111.93 80.1914 112.131 80.3555 112.369C80.5195 112.607 80.6016 112.896 80.6016 113.236C80.6016 113.514 80.543 113.768 80.4258 113.998C80.3125 114.229 80.1465 114.428 79.9277 114.596C79.7129 114.76 79.4551 114.889 79.1543 114.982C78.8574 115.072 78.5234 115.117 78.1523 115.117C77.5938 115.117 77.1211 115.018 76.7344 114.818C76.3477 114.619 76.0547 114.361 75.8555 114.045C75.6562 113.729 75.5566 113.395 75.5566 113.043H76.6465C76.6621 113.34 76.748 113.576 76.9043 113.752C77.0605 113.924 77.252 114.047 77.4785 114.121C77.7051 114.191 77.9297 114.227 78.1523 114.227C78.4492 114.227 78.6973 114.188 78.8965 114.109C79.0996 114.031 79.2539 113.924 79.3594 113.787C79.4648 113.65 79.5176 113.494 79.5176 113.318ZM83.1094 106V115H82.0254V106H83.1094ZM82.8516 111.59L82.4004 111.572C82.4043 111.139 82.4688 110.738 82.5938 110.371C82.7188 110 82.8945 109.678 83.1211 109.404C83.3477 109.131 83.6172 108.92 83.9297 108.771C84.2461 108.619 84.5957 108.543 84.9785 108.543C85.291 108.543 85.5723 108.586 85.8223 108.672C86.0723 108.754 86.2852 108.887 86.4609 109.07C86.6406 109.254 86.7773 109.492 86.8711 109.785C86.9648 110.074 87.0117 110.428 87.0117 110.846V115H85.9219V110.834C85.9219 110.502 85.873 110.236 85.7754 110.037C85.6777 109.834 85.5352 109.688 85.3477 109.598C85.1602 109.504 84.9297 109.457 84.6562 109.457C84.3867 109.457 84.1406 109.514 83.918 109.627C83.6992 109.74 83.5098 109.896 83.3496 110.096C83.1934 110.295 83.0703 110.523 82.9805 110.781C82.8945 111.035 82.8516 111.305 82.8516 111.59ZM91.2656 115.117C90.8242 115.117 90.4238 115.043 90.0645 114.895C89.709 114.742 89.4023 114.529 89.1445 114.256C88.8906 113.982 88.6953 113.658 88.5586 113.283C88.4219 112.908 88.3535 112.498 88.3535 112.053V111.807C88.3535 111.291 88.4297 110.832 88.582 110.43C88.7344 110.023 88.9414 109.68 89.2031 109.398C89.4648 109.117 89.7617 108.904 90.0938 108.76C90.4258 108.615 90.7695 108.543 91.125 108.543C91.5781 108.543 91.9688 108.621 92.2969 108.777C92.6289 108.934 92.9004 109.152 93.1113 109.434C93.3223 109.711 93.4785 110.039 93.5801 110.418C93.6816 110.793 93.7324 111.203 93.7324 111.648V112.135H88.998V111.25H92.6484V111.168C92.6328 110.887 92.5742 110.613 92.4727 110.348C92.375 110.082 92.2188 109.863 92.0039 109.691C91.7891 109.52 91.4961 109.434 91.125 109.434C90.8789 109.434 90.6523 109.486 90.4453 109.592C90.2383 109.693 90.0605 109.846 89.9121 110.049C89.7637 110.252 89.6484 110.5 89.5664 110.793C89.4844 111.086 89.4434 111.424 89.4434 111.807V112.053C89.4434 112.354 89.4844 112.637 89.5664 112.902C89.6523 113.164 89.7754 113.395 89.9355 113.594C90.0996 113.793 90.2969 113.949 90.5273 114.062C90.7617 114.176 91.0273 114.232 91.3242 114.232C91.707 114.232 92.0312 114.154 92.2969 113.998C92.5625 113.842 92.7949 113.633 92.9941 113.371L93.6504 113.893C93.5137 114.1 93.3398 114.297 93.1289 114.484C92.918 114.672 92.6582 114.824 92.3496 114.941C92.0449 115.059 91.6836 115.117 91.2656 115.117ZM96.1758 106V115H95.0859V106H96.1758ZM99.0938 106V115H98.0039V106H99.0938ZM103.852 110.729C103.852 110.545 103.908 110.391 104.021 110.266C104.135 110.137 104.301 110.072 104.52 110.072C104.738 110.072 104.904 110.137 105.018 110.266C105.135 110.391 105.193 110.545 105.193 110.729C105.193 110.908 105.135 111.061 105.018 111.186C104.904 111.307 104.738 111.367 104.52 111.367C104.301 111.367 104.135 111.307 104.021 111.186C103.908 111.061 103.852 110.908 103.852 110.729ZM78.457 129.117C78.0156 129.117 77.6152 129.043 77.2559 128.895C76.9004 128.742 76.5938 128.529 76.3359 128.256C76.082 127.982 75.8867 127.658 75.75 127.283C75.6133 126.908 75.5449 126.498 75.5449 126.053V125.807C75.5449 125.291 75.6211 124.832 75.7734 124.43C75.9258 124.023 76.1328 123.68 76.3945 123.398C76.6562 123.117 76.9531 122.904 77.2852 122.76C77.6172 122.615 77.9609 122.543 78.3164 122.543C78.7695 122.543 79.1602 122.621 79.4883 122.777C79.8203 122.934 80.0918 123.152 80.3027 123.434C80.5137 123.711 80.6699 124.039 80.7715 124.418C80.873 124.793 80.9238 125.203 80.9238 125.648V126.135H76.1895V125.25H79.8398V125.168C79.8242 124.887 79.7656 124.613 79.6641 124.348C79.5664 124.082 79.4102 123.863 79.1953 123.691C78.9805 123.52 78.6875 123.434 78.3164 123.434C78.0703 123.434 77.8438 123.486 77.6367 123.592C77.4297 123.693 77.252 123.846 77.1035 124.049C76.9551 124.252 76.8398 124.5 76.7578 124.793C76.6758 125.086 76.6348 125.424 76.6348 125.807V126.053C76.6348 126.354 76.6758 126.637 76.7578 126.902C76.8438 127.164 76.9668 127.395 77.127 127.594C77.291 127.793 77.4883 127.949 77.7188 128.062C77.9531 128.176 78.2188 128.232 78.5156 128.232C78.8984 128.232 79.2227 128.154 79.4883 127.998C79.7539 127.842 79.9863 127.633 80.1855 127.371L80.8418 127.893C80.7051 128.1 80.5312 128.297 80.3203 128.484C80.1094 128.672 79.8496 128.824 79.541 128.941C79.2363 129.059 78.875 129.117 78.457 129.117ZM86.1855 127.77V120H87.2754V129H86.2793L86.1855 127.77ZM81.9199 125.9V125.777C81.9199 125.293 81.9785 124.854 82.0957 124.459C82.2168 124.061 82.3867 123.719 82.6055 123.434C82.8281 123.148 83.0918 122.93 83.3965 122.777C83.7051 122.621 84.0488 122.543 84.4277 122.543C84.8262 122.543 85.1738 122.613 85.4707 122.754C85.7715 122.891 86.0254 123.092 86.2324 123.357C86.4434 123.619 86.6094 123.936 86.7305 124.307C86.8516 124.678 86.9355 125.098 86.9824 125.566V126.105C86.9395 126.57 86.8555 126.988 86.7305 127.359C86.6094 127.73 86.4434 128.047 86.2324 128.309C86.0254 128.57 85.7715 128.771 85.4707 128.912C85.1699 129.049 84.8184 129.117 84.416 129.117C84.0449 129.117 83.7051 129.037 83.3965 128.877C83.0918 128.717 82.8281 128.492 82.6055 128.203C82.3867 127.914 82.2168 127.574 82.0957 127.184C81.9785 126.789 81.9199 126.361 81.9199 125.9ZM83.0098 125.777V125.9C83.0098 126.217 83.041 126.514 83.1035 126.791C83.1699 127.068 83.2715 127.312 83.4082 127.523C83.5449 127.734 83.7188 127.9 83.9297 128.021C84.1406 128.139 84.3926 128.197 84.6855 128.197C85.0449 128.197 85.3398 128.121 85.5703 127.969C85.8047 127.816 85.9922 127.615 86.1328 127.365C86.2734 127.115 86.3828 126.844 86.4609 126.551V125.139C86.4141 124.924 86.3457 124.717 86.2559 124.518C86.1699 124.314 86.0566 124.135 85.916 123.979C85.7793 123.818 85.6094 123.691 85.4062 123.598C85.207 123.504 84.9707 123.457 84.6973 123.457C84.4004 123.457 84.1445 123.52 83.9297 123.645C83.7188 123.766 83.5449 123.934 83.4082 124.148C83.2715 124.359 83.1699 124.605 83.1035 124.887C83.041 125.164 83.0098 125.461 83.0098 125.777ZM90.1406 122.66V129H89.0508V122.66H90.1406ZM88.9688 120.979C88.9688 120.803 89.0215 120.654 89.127 120.533C89.2363 120.412 89.3965 120.352 89.6074 120.352C89.8145 120.352 89.9727 120.412 90.082 120.533C90.1953 120.654 90.252 120.803 90.252 120.979C90.252 121.146 90.1953 121.291 90.082 121.412C89.9727 121.529 89.8145 121.588 89.6074 121.588C89.3965 121.588 89.2363 121.529 89.127 121.412C89.0215 121.291 88.9688 121.146 88.9688 120.979ZM94.5352 122.66V123.492H91.1074V122.66H94.5352ZM92.2676 121.119H93.3516V127.43C93.3516 127.645 93.3848 127.807 93.4512 127.916C93.5176 128.025 93.6035 128.098 93.709 128.133C93.8145 128.168 93.9277 128.186 94.0488 128.186C94.1387 128.186 94.2324 128.178 94.3301 128.162C94.4316 128.143 94.5078 128.127 94.5586 128.115L94.5645 129C94.4785 129.027 94.3652 129.053 94.2246 129.076C94.0879 129.104 93.9219 129.117 93.7266 129.117C93.4609 129.117 93.2168 129.064 92.9941 128.959C92.7715 128.854 92.5938 128.678 92.4609 128.432C92.332 128.182 92.2676 127.846 92.2676 127.424V121.119ZM95.4023 125.9V125.766C95.4023 125.309 95.4688 124.885 95.6016 124.494C95.7344 124.1 95.9258 123.758 96.1758 123.469C96.4258 123.176 96.7285 122.949 97.084 122.789C97.4395 122.625 97.8379 122.543 98.2793 122.543C98.7246 122.543 99.125 122.625 99.4805 122.789C99.8398 122.949 100.145 123.176 100.395 123.469C100.648 123.758 100.842 124.1 100.975 124.494C101.107 124.885 101.174 125.309 101.174 125.766V125.9C101.174 126.357 101.107 126.781 100.975 127.172C100.842 127.562 100.648 127.904 100.395 128.197C100.145 128.486 99.8418 128.713 99.4863 128.877C99.1348 129.037 98.7363 129.117 98.291 129.117C97.8457 129.117 97.4453 129.037 97.0898 128.877C96.7344 128.713 96.4297 128.486 96.1758 128.197C95.9258 127.904 95.7344 127.562 95.6016 127.172C95.4688 126.781 95.4023 126.357 95.4023 125.9ZM96.4863 125.766V125.9C96.4863 126.217 96.5234 126.516 96.5977 126.797C96.6719 127.074 96.7832 127.32 96.9316 127.535C97.084 127.75 97.2734 127.92 97.5 128.045C97.7266 128.166 97.9902 128.227 98.291 128.227C98.5879 128.227 98.8477 128.166 99.0703 128.045C99.2969 127.92 99.4844 127.75 99.6328 127.535C99.7812 127.32 99.8926 127.074 99.9668 126.797C100.045 126.516 100.084 126.217 100.084 125.9V125.766C100.084 125.453 100.045 125.158 99.9668 124.881C99.8926 124.6 99.7793 124.352 99.627 124.137C99.4785 123.918 99.291 123.746 99.0645 123.621C98.8418 123.496 98.5801 123.434 98.2793 123.434C97.9824 123.434 97.7207 123.496 97.4941 123.621C97.2715 123.746 97.084 123.918 96.9316 124.137C96.7832 124.352 96.6719 124.6 96.5977 124.881C96.5234 125.158 96.4863 125.453 96.4863 125.766ZM103.617 123.656V129H102.533V122.66H103.588L103.617 123.656ZM105.598 122.625L105.592 123.633C105.502 123.613 105.416 123.602 105.334 123.598C105.256 123.59 105.166 123.586 105.064 123.586C104.814 123.586 104.594 123.625 104.402 123.703C104.211 123.781 104.049 123.891 103.916 124.031C103.783 124.172 103.678 124.34 103.6 124.535C103.525 124.727 103.477 124.938 103.453 125.168L103.148 125.344C103.148 124.961 103.186 124.602 103.26 124.266C103.338 123.93 103.457 123.633 103.617 123.375C103.777 123.113 103.98 122.91 104.227 122.766C104.477 122.617 104.773 122.543 105.117 122.543C105.195 122.543 105.285 122.553 105.387 122.572C105.488 122.588 105.559 122.605 105.598 122.625ZM109.617 124.729C109.617 124.545 109.674 124.391 109.787 124.266C109.9 124.137 110.066 124.072 110.285 124.072C110.504 124.072 110.67 124.137 110.783 124.266C110.9 124.391 110.959 124.545 110.959 124.729C110.959 124.908 110.9 125.061 110.783 125.186C110.67 125.307 110.504 125.367 110.285 125.367C110.066 125.367 109.9 125.307 109.787 125.186C109.674 125.061 109.617 124.908 109.617 124.729ZM77.4316 141.875L79.0605 136.66H79.7754L79.6348 137.697L77.9766 143H77.2793L77.4316 141.875ZM76.3359 136.66L77.7246 141.934L77.8242 143H77.0918L75.252 136.66H76.3359ZM81.334 141.893L82.6582 136.66H83.7363L81.8965 143H81.1699L81.334 141.893ZM79.9336 136.66L81.5273 141.787L81.709 143H81.0176L79.3125 137.686L79.1719 136.66H79.9336ZM85.9277 137.92V143H84.8379V136.66H85.8691L85.9277 137.92ZM85.7051 139.59L85.2012 139.572C85.2051 139.139 85.2617 138.738 85.3711 138.371C85.4805 138 85.6426 137.678 85.8574 137.404C86.0723 137.131 86.3398 136.92 86.6602 136.771C86.9805 136.619 87.3516 136.543 87.7734 136.543C88.0703 136.543 88.3438 136.586 88.5938 136.672C88.8438 136.754 89.0605 136.885 89.2441 137.064C89.4277 137.244 89.5703 137.475 89.6719 137.756C89.7734 138.037 89.8242 138.377 89.8242 138.775V143H88.7402V138.828C88.7402 138.496 88.6836 138.23 88.5703 138.031C88.4609 137.832 88.3047 137.688 88.1016 137.598C87.8984 137.504 87.6602 137.457 87.3867 137.457C87.0664 137.457 86.7988 137.514 86.584 137.627C86.3691 137.74 86.1973 137.896 86.0684 138.096C85.9395 138.295 85.8457 138.523 85.7871 138.781C85.7324 139.035 85.7051 139.305 85.7051 139.59ZM89.8125 138.992L89.0859 139.215C89.0898 138.867 89.1465 138.533 89.2559 138.213C89.3691 137.893 89.5312 137.607 89.7422 137.357C89.957 137.107 90.2207 136.91 90.5332 136.766C90.8457 136.617 91.2031 136.543 91.6055 136.543C91.9453 136.543 92.2461 136.588 92.5078 136.678C92.7734 136.768 92.9961 136.906 93.1758 137.094C93.3594 137.277 93.498 137.514 93.5918 137.803C93.6855 138.092 93.7324 138.436 93.7324 138.834V143H92.6426V138.822C92.6426 138.467 92.5859 138.191 92.4727 137.996C92.3633 137.797 92.207 137.658 92.0039 137.58C91.8047 137.498 91.5664 137.457 91.2891 137.457C91.0508 137.457 90.8398 137.498 90.6562 137.58C90.4727 137.662 90.3184 137.775 90.1934 137.92C90.0684 138.061 89.9727 138.223 89.9062 138.406C89.8438 138.59 89.8125 138.785 89.8125 138.992ZM98.3906 138.729C98.3906 138.545 98.4473 138.391 98.5605 138.266C98.6738 138.137 98.8398 138.072 99.0586 138.072C99.2773 138.072 99.4434 138.137 99.5566 138.266C99.6738 138.391 99.7324 138.545 99.7324 138.729C99.7324 138.908 99.6738 139.061 99.5566 139.186C99.4434 139.307 99.2773 139.367 99.0586 139.367C98.8398 139.367 98.6738 139.307 98.5605 139.186C98.4473 139.061 98.3906 138.908 98.3906 138.729Z" fill="#8CAAEE"/>
<path d="M91.8867 96.7285C91.8867 96.5449 91.9434 96.3906 92.0566 96.2656C92.1699 96.1367 92.3359 96.0723 92.5547 96.0723C92.7734 96.0723 92.9395 96.1367 93.0527 96.2656C93.1699 96.3906 93.2285 96.5449 93.2285 96.7285C93.2285 96.9082 93.1699 97.0605 93.0527 97.1855C92.9395 97.3066 92.7734 97.3672 92.5547 97.3672C92.3359 97.3672 92.1699 97.3066 92.0566 97.1855C91.9434 97.0605 91.8867 96.9082 91.8867 96.7285ZM99.0469 96.0137V101H97.9629V94.6602H98.9883L99.0469 96.0137ZM98.7891 97.5898L98.3379 97.5723C98.3418 97.1387 98.4062 96.7383 98.5312 96.3711C98.6562 96 98.832 95.6777 99.0586 95.4043C99.2852 95.1309 99.5547 94.9199 99.8672 94.7715C100.184 94.6191 100.533 94.543 100.916 94.543C101.229 94.543 101.51 94.5859 101.76 94.6719C102.01 94.7539 102.223 94.8867 102.398 95.0703C102.578 95.2539 102.715 95.4922 102.809 95.7852C102.902 96.0742 102.949 96.4277 102.949 96.8457V101H101.859V96.834C101.859 96.502 101.811 96.2363 101.713 96.0371C101.615 95.834 101.473 95.6875 101.285 95.5977C101.098 95.5039 100.867 95.457 100.594 95.457C100.324 95.457 100.078 95.5137 99.8555 95.627C99.6367 95.7402 99.4473 95.8965 99.2871 96.0957C99.1309 96.2949 99.0078 96.5234 98.918 96.7812C98.832 97.0352 98.7891 97.3047 98.7891 97.5898ZM105.773 94.6602V101H104.684V94.6602H105.773ZM104.602 92.9785C104.602 92.8027 104.654 92.6543 104.76 92.5332C104.869 92.4121 105.029 92.3516 105.24 92.3516C105.447 92.3516 105.605 92.4121 105.715 92.5332C105.828 92.6543 105.885 92.8027 105.885 92.9785C105.885 93.1465 105.828 93.291 105.715 93.4121C105.605 93.5293 105.447 93.5879 105.24 93.5879C105.029 93.5879 104.869 93.5293 104.76 93.4121C104.654 93.291 104.602 93.1465 104.602 92.9785ZM108.246 94.6602L109.635 96.9688L111.041 94.6602H112.312L110.238 97.7891L112.377 101H111.123L109.658 98.6211L108.193 101H106.934L109.066 97.7891L106.998 94.6602H108.246ZM113.062 97.9004V97.7656C113.062 97.3086 113.129 96.8848 113.262 96.4941C113.395 96.0996 113.586 95.7578 113.836 95.4688C114.086 95.1758 114.389 94.9492 114.744 94.7891C115.1 94.625 115.498 94.543 115.939 94.543C116.385 94.543 116.785 94.625 117.141 94.7891C117.5 94.9492 117.805 95.1758 118.055 95.4688C118.309 95.7578 118.502 96.0996 118.635 96.4941C118.768 96.8848 118.834 97.3086 118.834 97.7656V97.9004C118.834 98.3574 118.768 98.7812 118.635 99.1719C118.502 99.5625 118.309 99.9043 118.055 100.197C117.805 100.486 117.502 100.713 117.146 100.877C116.795 101.037 116.396 101.117 115.951 101.117C115.506 101.117 115.105 101.037 114.75 100.877C114.395 100.713 114.09 100.486 113.836 100.197C113.586 99.9043 113.395 99.5625 113.262 99.1719C113.129 98.7812 113.062 98.3574 113.062 97.9004ZM114.146 97.7656V97.9004C114.146 98.2168 114.184 98.5156 114.258 98.7969C114.332 99.0742 114.443 99.3203 114.592 99.5352C114.744 99.75 114.934 99.9199 115.16 100.045C115.387 100.166 115.65 100.227 115.951 100.227C116.248 100.227 116.508 100.166 116.73 100.045C116.957 99.9199 117.145 99.75 117.293 99.5352C117.441 99.3203 117.553 99.0742 117.627 98.7969C117.705 98.5156 117.744 98.2168 117.744 97.9004V97.7656C117.744 97.4531 117.705 97.1582 117.627 96.8809C117.553 96.5996 117.439 96.3516 117.287 96.1367C117.139 95.918 116.951 95.7461 116.725 95.6211C116.502 95.4961 116.24 95.4336 115.939 95.4336C115.643 95.4336 115.381 95.4961 115.154 95.6211C114.932 95.7461 114.744 95.918 114.592 96.1367C114.443 96.3516 114.332 96.5996 114.258 96.8809C114.184 97.1582 114.146 97.4531 114.146 97.7656ZM123.885 99.3184C123.885 99.1621 123.85 99.0176 123.779 98.8848C123.713 98.748 123.574 98.625 123.363 98.5156C123.156 98.4023 122.844 98.3047 122.426 98.2227C122.074 98.1484 121.756 98.0605 121.471 97.959C121.189 97.8574 120.949 97.7344 120.75 97.5898C120.555 97.4453 120.404 97.2754 120.299 97.0801C120.193 96.8848 120.141 96.6562 120.141 96.3945C120.141 96.1445 120.195 95.9082 120.305 95.6855C120.418 95.4629 120.576 95.2656 120.779 95.0938C120.986 94.9219 121.234 94.7871 121.523 94.6895C121.812 94.5918 122.135 94.543 122.49 94.543C122.998 94.543 123.432 94.6328 123.791 94.8125C124.15 94.9922 124.426 95.2324 124.617 95.5332C124.809 95.8301 124.904 96.1602 124.904 96.5234H123.82C123.82 96.3477 123.768 96.1777 123.662 96.0137C123.561 95.8457 123.41 95.707 123.211 95.5977C123.016 95.4883 122.775 95.4336 122.49 95.4336C122.189 95.4336 121.945 95.4805 121.758 95.5742C121.574 95.6641 121.439 95.7793 121.354 95.9199C121.271 96.0605 121.23 96.209 121.23 96.3652C121.23 96.4824 121.25 96.5879 121.289 96.6816C121.332 96.7715 121.406 96.8555 121.512 96.9336C121.617 97.0078 121.766 97.0781 121.957 97.1445C122.148 97.2109 122.393 97.2773 122.689 97.3438C123.209 97.4609 123.637 97.6016 123.973 97.7656C124.309 97.9297 124.559 98.1309 124.723 98.3691C124.887 98.6074 124.969 98.8965 124.969 99.2363C124.969 99.5137 124.91 99.7676 124.793 99.998C124.68 100.229 124.514 100.428 124.295 100.596C124.08 100.76 123.822 100.889 123.521 100.982C123.225 101.072 122.891 101.117 122.52 101.117C121.961 101.117 121.488 101.018 121.102 100.818C120.715 100.619 120.422 100.361 120.223 100.045C120.023 99.7285 119.924 99.3945 119.924 99.043H121.014C121.029 99.3398 121.115 99.5762 121.271 99.752C121.428 99.9238 121.619 100.047 121.846 100.121C122.072 100.191 122.297 100.227 122.52 100.227C122.816 100.227 123.064 100.188 123.264 100.109C123.467 100.031 123.621 99.9238 123.727 99.7871C123.832 99.6504 123.885 99.4941 123.885 99.3184ZM114.65 114.109V115H110.039V114.109H114.65ZM114.48 109.428L110.285 115H109.623V114.203L113.789 108.66H114.48V109.428ZM114 108.66V109.557H109.67V108.66H114ZM119.572 113.318C119.572 113.162 119.537 113.018 119.467 112.885C119.4 112.748 119.262 112.625 119.051 112.516C118.844 112.402 118.531 112.305 118.113 112.223C117.762 112.148 117.443 112.061 117.158 111.959C116.877 111.857 116.637 111.734 116.438 111.59C116.242 111.445 116.092 111.275 115.986 111.08C115.881 110.885 115.828 110.656 115.828 110.395C115.828 110.145 115.883 109.908 115.992 109.686C116.105 109.463 116.264 109.266 116.467 109.094C116.674 108.922 116.922 108.787 117.211 108.689C117.5 108.592 117.822 108.543 118.178 108.543C118.686 108.543 119.119 108.633 119.479 108.812C119.838 108.992 120.113 109.232 120.305 109.533C120.496 109.83 120.592 110.16 120.592 110.523H119.508C119.508 110.348 119.455 110.178 119.35 110.014C119.248 109.846 119.098 109.707 118.898 109.598C118.703 109.488 118.463 109.434 118.178 109.434C117.877 109.434 117.633 109.48 117.445 109.574C117.262 109.664 117.127 109.779 117.041 109.92C116.959 110.061 116.918 110.209 116.918 110.365C116.918 110.482 116.938 110.588 116.977 110.682C117.02 110.771 117.094 110.855 117.199 110.934C117.305 111.008 117.453 111.078 117.645 111.145C117.836 111.211 118.08 111.277 118.377 111.344C118.896 111.461 119.324 111.602 119.66 111.766C119.996 111.93 120.246 112.131 120.41 112.369C120.574 112.607 120.656 112.896 120.656 113.236C120.656 113.514 120.598 113.768 120.48 113.998C120.367 114.229 120.201 114.428 119.982 114.596C119.768 114.76 119.51 114.889 119.209 114.982C118.912 115.072 118.578 115.117 118.207 115.117C117.648 115.117 117.176 115.018 116.789 114.818C116.402 114.619 116.109 114.361 115.91 114.045C115.711 113.729 115.611 113.395 115.611 113.043H116.701C116.717 113.34 116.803 113.576 116.959 113.752C117.115 113.924 117.307 114.047 117.533 114.121C117.76 114.191 117.984 114.227 118.207 114.227C118.504 114.227 118.752 114.188 118.951 114.109C119.154 114.031 119.309 113.924 119.414 113.787C119.52 113.65 119.572 113.494 119.572 113.318ZM123.164 106V115H122.08V106H123.164ZM122.906 111.59L122.455 111.572C122.459 111.139 122.523 110.738 122.648 110.371C122.773 110 122.949 109.678 123.176 109.404C123.402 109.131 123.672 108.92 123.984 108.771C124.301 108.619 124.65 108.543 125.033 108.543C125.346 108.543 125.627 108.586 125.877 108.672C126.127 108.754 126.34 108.887 126.516 109.07C126.695 109.254 126.832 109.492 126.926 109.785C127.02 110.074 127.066 110.428 127.066 110.846V115H125.977V110.834C125.977 110.502 125.928 110.236 125.83 110.037C125.732 109.834 125.59 109.688 125.402 109.598C125.215 109.504 124.984 109.457 124.711 109.457C124.441 109.457 124.195 109.514 123.973 109.627C123.754 109.74 123.564 109.896 123.404 110.096C123.248 110.295 123.125 110.523 123.035 110.781C122.949 111.035 122.906 111.305 122.906 111.59ZM116.777 124.014V129H115.693V122.66H116.719L116.777 124.014ZM116.52 125.59L116.068 125.572C116.072 125.139 116.137 124.738 116.262 124.371C116.387 124 116.562 123.678 116.789 123.404C117.016 123.131 117.285 122.92 117.598 122.771C117.914 122.619 118.264 122.543 118.646 122.543C118.959 122.543 119.24 122.586 119.49 122.672C119.74 122.754 119.953 122.887 120.129 123.07C120.309 123.254 120.445 123.492 120.539 123.785C120.633 124.074 120.68 124.428 120.68 124.846V129H119.59V124.834C119.59 124.502 119.541 124.236 119.443 124.037C119.346 123.834 119.203 123.688 119.016 123.598C118.828 123.504 118.598 123.457 118.324 123.457C118.055 123.457 117.809 123.514 117.586 123.627C117.367 123.74 117.178 123.896 117.018 124.096C116.861 124.295 116.738 124.523 116.648 124.781C116.562 125.035 116.52 125.305 116.52 125.59ZM124.254 128.021L125.988 122.66H127.096L124.816 129H124.09L124.254 128.021ZM122.807 122.66L124.594 128.051L124.717 129H123.99L121.693 122.66H122.807ZM129.316 122.66V129H128.227V122.66H129.316ZM128.145 120.979C128.145 120.803 128.197 120.654 128.303 120.533C128.412 120.412 128.572 120.352 128.783 120.352C128.99 120.352 129.148 120.412 129.258 120.533C129.371 120.654 129.428 120.803 129.428 120.979C129.428 121.146 129.371 121.291 129.258 121.412C129.148 121.529 128.99 121.588 128.783 121.588C128.572 121.588 128.412 121.529 128.303 121.412C128.197 121.291 128.145 121.146 128.145 120.979ZM132.135 123.92V129H131.045V122.66H132.076L132.135 123.92ZM131.912 125.59L131.408 125.572C131.412 125.139 131.469 124.738 131.578 124.371C131.688 124 131.85 123.678 132.064 123.404C132.279 123.131 132.547 122.92 132.867 122.771C133.188 122.619 133.559 122.543 133.98 122.543C134.277 122.543 134.551 122.586 134.801 122.672C135.051 122.754 135.268 122.885 135.451 123.064C135.635 123.244 135.777 123.475 135.879 123.756C135.98 124.037 136.031 124.377 136.031 124.775V129H134.947V124.828C134.947 124.496 134.891 124.23 134.777 124.031C134.668 123.832 134.512 123.688 134.309 123.598C134.105 123.504 133.867 123.457 133.594 123.457C133.273 123.457 133.006 123.514 132.791 123.627C132.576 123.74 132.404 123.896 132.275 124.096C132.146 124.295 132.053 124.523 131.994 124.781C131.939 125.035 131.912 125.305 131.912 125.59ZM136.02 124.992L135.293 125.215C135.297 124.867 135.354 124.533 135.463 124.213C135.576 123.893 135.738 123.607 135.949 123.357C136.164 123.107 136.428 122.91 136.74 122.766C137.053 122.617 137.41 122.543 137.812 122.543C138.152 122.543 138.453 122.588 138.715 122.678C138.98 122.768 139.203 122.906 139.383 123.094C139.566 123.277 139.705 123.514 139.799 123.803C139.893 124.092 139.939 124.436 139.939 124.834V129H138.85V124.822C138.85 124.467 138.793 124.191 138.68 123.996C138.57 123.797 138.414 123.658 138.211 123.58C138.012 123.498 137.773 123.457 137.496 123.457C137.258 123.457 137.047 123.498 136.863 123.58C136.68 123.662 136.525 123.775 136.4 123.92C136.275 124.061 136.18 124.223 136.113 124.406C136.051 124.59 136.02 124.785 136.02 124.992ZM148.33 120.469L144.773 129.732H143.842L147.404 120.469H148.33ZM157.213 128.109V129H152.602V128.109H157.213ZM157.043 123.428L152.848 129H152.186V128.203L156.352 122.66H157.043V123.428ZM156.562 122.66V123.557H152.232V122.66H156.562ZM160.98 129.117C160.539 129.117 160.139 129.043 159.779 128.895C159.424 128.742 159.117 128.529 158.859 128.256C158.605 127.982 158.41 127.658 158.273 127.283C158.137 126.908 158.068 126.498 158.068 126.053V125.807C158.068 125.291 158.145 124.832 158.297 124.43C158.449 124.023 158.656 123.68 158.918 123.398C159.18 123.117 159.477 122.904 159.809 122.76C160.141 122.615 160.484 122.543 160.84 122.543C161.293 122.543 161.684 122.621 162.012 122.777C162.344 122.934 162.615 123.152 162.826 123.434C163.037 123.711 163.193 124.039 163.295 124.418C163.396 124.793 163.447 125.203 163.447 125.648V126.135H158.713V125.25H162.363V125.168C162.348 124.887 162.289 124.613 162.188 124.348C162.09 124.082 161.934 123.863 161.719 123.691C161.504 123.52 161.211 123.434 160.84 123.434C160.594 123.434 160.367 123.486 160.16 123.592C159.953 123.693 159.775 123.846 159.627 124.049C159.479 124.252 159.363 124.5 159.281 124.793C159.199 125.086 159.158 125.424 159.158 125.807V126.053C159.158 126.354 159.199 126.637 159.281 126.902C159.367 127.164 159.49 127.395 159.65 127.594C159.814 127.793 160.012 127.949 160.242 128.062C160.477 128.176 160.742 128.232 161.039 128.232C161.422 128.232 161.746 128.154 162.012 127.998C162.277 127.842 162.51 127.633 162.709 127.371L163.365 127.893C163.229 128.1 163.055 128.297 162.844 128.484C162.633 128.672 162.373 128.824 162.064 128.941C161.76 129.059 161.398 129.117 160.98 129.117ZM168.709 127.77V120H169.799V129H168.803L168.709 127.77ZM164.443 125.9V125.777C164.443 125.293 164.502 124.854 164.619 124.459C164.74 124.061 164.91 123.719 165.129 123.434C165.352 123.148 165.615 122.93 165.92 122.777C166.229 122.621 166.572 122.543 166.951 122.543C167.35 122.543 167.697 122.613 167.994 122.754C168.295 122.891 168.549 123.092 168.756 123.357C168.967 123.619 169.133 123.936 169.254 124.307C169.375 124.678 169.459 125.098 169.506 125.566V126.105C169.463 126.57 169.379 126.988 169.254 127.359C169.133 127.73 168.967 128.047 168.756 128.309C168.549 128.57 168.295 128.771 167.994 128.912C167.693 129.049 167.342 129.117 166.939 129.117C166.568 129.117 166.229 129.037 165.92 128.877C165.615 128.717 165.352 128.492 165.129 128.203C164.91 127.914 164.74 127.574 164.619 127.184C164.502 126.789 164.443 126.361 164.443 125.9ZM165.533 125.777V125.9C165.533 126.217 165.564 126.514 165.627 126.791C165.693 127.068 165.795 127.312 165.932 127.523C166.068 127.734 166.242 127.9 166.453 128.021C166.664 128.139 166.916 128.197 167.209 128.197C167.568 128.197 167.863 128.121 168.094 127.969C168.328 127.816 168.516 127.615 168.656 127.365C168.797 127.115 168.906 126.844 168.984 126.551V125.139C168.938 124.924 168.869 124.717 168.779 124.518C168.693 124.314 168.58 124.135 168.439 123.979C168.303 123.818 168.133 123.691 167.93 123.598C167.73 123.504 167.494 123.457 167.221 123.457C166.924 123.457 166.668 123.52 166.453 123.645C166.242 123.766 166.068 123.934 165.932 124.148C165.795 124.359 165.693 124.605 165.627 124.887C165.564 125.164 165.533 125.461 165.533 125.777ZM105.551 134V143H104.467V134H105.551ZM105.293 139.59L104.842 139.572C104.846 139.139 104.91 138.738 105.035 138.371C105.16 138 105.336 137.678 105.562 137.404C105.789 137.131 106.059 136.92 106.371 136.771C106.688 136.619 107.037 136.543 107.42 136.543C107.732 136.543 108.014 136.586 108.264 136.672C108.514 136.754 108.727 136.887 108.902 137.07C109.082 137.254 109.219 137.492 109.312 137.785C109.406 138.074 109.453 138.428 109.453 138.846V143H108.363V138.834C108.363 138.502 108.314 138.236 108.217 138.037C108.119 137.834 107.977 137.688 107.789 137.598C107.602 137.504 107.371 137.457 107.098 137.457C106.828 137.457 106.582 137.514 106.359 137.627C106.141 137.74 105.951 137.896 105.791 138.096C105.635 138.295 105.512 138.523 105.422 138.781C105.336 139.035 105.293 139.305 105.293 139.59ZM112.857 142.344L114.621 136.66H115.781L113.238 143.979C113.18 144.135 113.102 144.303 113.004 144.482C112.91 144.666 112.789 144.84 112.641 145.004C112.492 145.168 112.312 145.301 112.102 145.402C111.895 145.508 111.646 145.561 111.357 145.561C111.271 145.561 111.162 145.549 111.029 145.525C110.896 145.502 110.803 145.482 110.748 145.467L110.742 144.588C110.773 144.592 110.822 144.596 110.889 144.6C110.959 144.607 111.008 144.611 111.035 144.611C111.281 144.611 111.49 144.578 111.662 144.512C111.834 144.449 111.979 144.342 112.096 144.189C112.217 144.041 112.32 143.836 112.406 143.574L112.857 142.344ZM111.562 136.66L113.209 141.582L113.49 142.725L112.711 143.123L110.379 136.66H111.562ZM117.844 137.879V145.438H116.754V136.66H117.75L117.844 137.879ZM122.115 139.777V139.9C122.115 140.361 122.061 140.789 121.951 141.184C121.842 141.574 121.682 141.914 121.471 142.203C121.264 142.492 121.008 142.717 120.703 142.877C120.398 143.037 120.049 143.117 119.654 143.117C119.252 143.117 118.896 143.051 118.588 142.918C118.279 142.785 118.018 142.592 117.803 142.338C117.588 142.084 117.416 141.779 117.287 141.424C117.162 141.068 117.076 140.668 117.029 140.223V139.566C117.076 139.098 117.164 138.678 117.293 138.307C117.422 137.936 117.592 137.619 117.803 137.357C118.018 137.092 118.277 136.891 118.582 136.754C118.887 136.613 119.238 136.543 119.637 136.543C120.035 136.543 120.389 136.621 120.697 136.777C121.006 136.93 121.266 137.148 121.477 137.434C121.688 137.719 121.846 138.061 121.951 138.459C122.061 138.854 122.115 139.293 122.115 139.777ZM121.025 139.9V139.777C121.025 139.461 120.992 139.164 120.926 138.887C120.859 138.605 120.756 138.359 120.615 138.148C120.479 137.934 120.303 137.766 120.088 137.645C119.873 137.52 119.617 137.457 119.32 137.457C119.047 137.457 118.809 137.504 118.605 137.598C118.406 137.691 118.236 137.818 118.096 137.979C117.955 138.135 117.84 138.314 117.75 138.518C117.664 138.717 117.6 138.924 117.557 139.139V140.656C117.635 140.93 117.744 141.188 117.885 141.43C118.025 141.668 118.213 141.861 118.447 142.01C118.682 142.154 118.977 142.227 119.332 142.227C119.625 142.227 119.877 142.166 120.088 142.045C120.303 141.92 120.479 141.75 120.615 141.535C120.756 141.32 120.859 141.074 120.926 140.797C120.992 140.516 121.025 140.217 121.025 139.9ZM124.582 137.656V143H123.498V136.66H124.553L124.582 137.656ZM126.562 136.625L126.557 137.633C126.467 137.613 126.381 137.602 126.299 137.598C126.221 137.59 126.131 137.586 126.029 137.586C125.779 137.586 125.559 137.625 125.367 137.703C125.176 137.781 125.014 137.891 124.881 138.031C124.748 138.172 124.643 138.34 124.564 138.535C124.49 138.727 124.441 138.938 124.418 139.168L124.113 139.344C124.113 138.961 124.15 138.602 124.225 138.266C124.303 137.93 124.422 137.633 124.582 137.375C124.742 137.113 124.945 136.91 125.191 136.766C125.441 136.617 125.738 136.543 126.082 136.543C126.16 136.543 126.25 136.553 126.352 136.572C126.453 136.588 126.523 136.605 126.562 136.625ZM128.742 134V143H127.652V134H128.742ZM134.221 141.916V138.652C134.221 138.402 134.17 138.186 134.068 138.002C133.971 137.814 133.822 137.67 133.623 137.568C133.424 137.467 133.178 137.416 132.885 137.416C132.611 137.416 132.371 137.463 132.164 137.557C131.961 137.65 131.801 137.773 131.684 137.926C131.57 138.078 131.514 138.242 131.514 138.418H130.43C130.43 138.191 130.488 137.967 130.605 137.744C130.723 137.521 130.891 137.32 131.109 137.141C131.332 136.957 131.598 136.812 131.906 136.707C132.219 136.598 132.566 136.543 132.949 136.543C133.41 136.543 133.816 136.621 134.168 136.777C134.523 136.934 134.801 137.17 135 137.486C135.203 137.799 135.305 138.191 135.305 138.664V141.617C135.305 141.828 135.322 142.053 135.357 142.291C135.396 142.529 135.453 142.734 135.527 142.906V143H134.396C134.342 142.875 134.299 142.709 134.268 142.502C134.236 142.291 134.221 142.096 134.221 141.916ZM134.408 139.156L134.42 139.918H133.324C133.016 139.918 132.74 139.943 132.498 139.994C132.256 140.041 132.053 140.113 131.889 140.211C131.725 140.309 131.6 140.432 131.514 140.58C131.428 140.725 131.385 140.895 131.385 141.09C131.385 141.289 131.43 141.471 131.52 141.635C131.609 141.799 131.744 141.93 131.924 142.027C132.107 142.121 132.332 142.168 132.598 142.168C132.93 142.168 133.223 142.098 133.477 141.957C133.73 141.816 133.932 141.645 134.08 141.441C134.232 141.238 134.314 141.041 134.326 140.85L134.789 141.371C134.762 141.535 134.688 141.717 134.566 141.916C134.445 142.115 134.283 142.307 134.08 142.49C133.881 142.67 133.643 142.82 133.365 142.941C133.092 143.059 132.783 143.117 132.439 143.117C132.01 143.117 131.633 143.033 131.309 142.865C130.988 142.697 130.738 142.473 130.559 142.191C130.383 141.906 130.295 141.588 130.295 141.236C130.295 140.896 130.361 140.598 130.494 140.34C130.627 140.078 130.818 139.861 131.068 139.689C131.318 139.514 131.619 139.381 131.971 139.291C132.322 139.201 132.715 139.156 133.148 139.156H134.408ZM138.094 138.014V143H137.01V136.66H138.035L138.094 138.014ZM137.836 139.59L137.385 139.572C137.389 139.139 137.453 138.738 137.578 138.371C137.703 138 137.879 137.678 138.105 137.404C138.332 137.131 138.602 136.92 138.914 136.771C139.23 136.619 139.58 136.543 139.963 136.543C140.275 136.543 140.557 136.586 140.807 136.672C141.057 136.754 141.27 136.887 141.445 137.07C141.625 137.254 141.762 137.492 141.855 137.785C141.949 138.074 141.996 138.428 141.996 138.846V143H140.906V138.834C140.906 138.502 140.857 138.236 140.76 138.037C140.662 137.834 140.52 137.688 140.332 137.598C140.145 137.504 139.914 137.457 139.641 137.457C139.371 137.457 139.125 137.514 138.902 137.627C138.684 137.74 138.494 137.896 138.334 138.096C138.178 138.295 138.055 138.523 137.965 138.781C137.879 139.035 137.836 139.305 137.836 139.59ZM147.639 141.77V134H148.729V143H147.732L147.639 141.77ZM143.373 139.9V139.777C143.373 139.293 143.432 138.854 143.549 138.459C143.67 138.061 143.84 137.719 144.059 137.434C144.281 137.148 144.545 136.93 144.85 136.777C145.158 136.621 145.502 136.543 145.881 136.543C146.279 136.543 146.627 136.613 146.924 136.754C147.225 136.891 147.479 137.092 147.686 137.357C147.896 137.619 148.062 137.936 148.184 138.307C148.305 138.678 148.389 139.098 148.436 139.566V140.105C148.393 140.57 148.309 140.988 148.184 141.359C148.062 141.73 147.896 142.047 147.686 142.309C147.479 142.57 147.225 142.771 146.924 142.912C146.623 143.049 146.271 143.117 145.869 143.117C145.498 143.117 145.158 143.037 144.85 142.877C144.545 142.717 144.281 142.492 144.059 142.203C143.84 141.914 143.67 141.574 143.549 141.184C143.432 140.789 143.373 140.361 143.373 139.9ZM144.463 139.777V139.9C144.463 140.217 144.494 140.514 144.557 140.791C144.623 141.068 144.725 141.312 144.861 141.523C144.998 141.734 145.172 141.9 145.383 142.021C145.594 142.139 145.846 142.197 146.139 142.197C146.498 142.197 146.793 142.121 147.023 141.969C147.258 141.816 147.445 141.615 147.586 141.365C147.727 141.115 147.836 140.844 147.914 140.551V139.139C147.867 138.924 147.799 138.717 147.709 138.518C147.623 138.314 147.51 138.135 147.369 137.979C147.232 137.818 147.062 137.691 146.859 137.598C146.66 137.504 146.424 137.457 146.15 137.457C145.854 137.457 145.598 137.52 145.383 137.645C145.172 137.766 144.998 137.934 144.861 138.148C144.725 138.359 144.623 138.605 144.557 138.887C144.494 139.164 144.463 139.461 144.463 139.777Z" fill="#A5ADCE"/>
<path d="M288 80C291.314 80 294 77.3137 294 74C294 70.6863 291.314 68 288 68C284.686 68 282 70.6863 282 74C282 77.3137 284.686 80 288 80Z" fill="#F2D5CF"/>
<path d="M306 80C309.314 80 312 77.3137 312 74C312 70.6863 309.314 68 306 68C302.686 68 300 70.6863 300 74C300 77.3137 302.686 80 306 80Z" fill="#EEBEBE"/>
<path d="M324 80C327.314 80 330 77.3137 330 74C330 70.6863 327.314 68 324 68C320.686 68 318 70.6863 318 74C318 77.3137 320.686 80 324 80Z" fill="#F4B8E4"/>
<path d="M342 80C345.314 80 348 77.3137 348 74C348 70.6863 345.314 68 342 68C338.686 68 336 70.6863 336 74C336 77.3137 338.686 80 342 80Z" fill="#CA9EE6"/>
<path d="M360 80C363.314 80 366 77.3137 366 74C366 70.6863 363.314 68 360 68C356.686 68 354 70.6863 354 74C354 77.3137 356.686 80 360 80Z" fill="#E78284"/>
<path d="M378 80C381.314 80 384 77.3137 384 74C384 70.6863 381.314 68 378 68C374.686 68 372 70.6863 372 74C372 77.3137 374.686 80 378 80Z" fill="#EA999C"/>
<path d="M396 80C399.314 80 402 77.3137 402 74C402 70.6863 399.314 68 396 68C392.686 68 390 70.6863 390 74C390 77.3137 392.686 80 396 80Z" fill="#EF9F76"/>
<path d="M288 100C291.314 100 294 97.3137 294 94C294 90.6863 291.314 88 288 88C284.686 88 282 90.6863 282 94C282 97.3137 284.686 100 288 100Z" fill="#E5C890"/>
<path d="M306 100C309.314 100 312 97.3137 312 94C312 90.6863 309.314 88 306 88C302.686 88 300 90.6863 300 94C300 97.3137 302.686 100 306 100Z" fill="#A6D189"/>
<path d="M324 100C327.314 100 330 97.3137 330 94C330 90.6863 327.314 88 324 88C320.686 88 318 90.6863 318 94C318 97.3137 320.686 100 324 100Z" fill="#81C8BE"/>
<path d="M342 100C345.314 100 348 97.3137 348 94C348 90.6863 345.314 88 342 88C338.686 88 336 90.6863 336 94C336 97.3137 338.686 100 342 100Z" fill="#99D1DB"/>
<path d="M360 100C363.314 100 366 97.3137 366 94C366 90.6863 363.314 88 360 88C356.686 88 354 90.6863 354 94C354 97.3137 356.686 100 360 100Z" fill="#85C1DC"/>
<path d="M378 100C381.314 100 384 97.3137 384 94C384 90.6863 381.314 88 378 88C374.686 88 372 90.6863 372 94C372 97.3137 374.686 100 378 100Z" fill="#8CAAEE"/>
<path d="M396 100C399.314 100 402 97.3137 402 94C402 90.6863 399.314 88 396 88C392.686 88 390 90.6863 390 94C390 97.3137 392.686 100 396 100Z" fill="#BABBF1"/>
</svg>
