<svg width="420" height="180" viewBox="0 0 420 180" fill="none" xmlns="http://www.w3.org/2000/svg">
  <defs>
    <clipPath id="window">
      <rect width="420" height="180" rx="10"/>
    </clipPath>
  </defs>
  <style>
    .base { fill: #303446; }
    .surface { fill: #414559; }
    .text { fill: #c6d0f5; font-family: ui-monospace, 'Cascadia Code', 'Source Code Pro', Menlo, Consolas, 'DejaVu Sans Mono', monospace; font-size: 12px; }
    .subtext { fill: #a5adce; font-family: ui-monospace, 'Cascadia Code', 'Source Code Pro', Menlo, Consolas, 'DejaVu Sans Mono', monospace; font-size: 12px; }
    .mauve { fill: #ca9ee6; }
    .pink { fill: #f4b8e4; }
    .peach { fill: #ef9f76; }
    .green { fill: #a6d189; }
    .blue { fill: #8caaee; }
    .teal { fill: #81c8be; }
    .lavender { fill: #babbf1; }
    .red { fill: #e78284; }
    .yellow { fill: #e5c890; }
    .flamingo { fill: #eebebe; }
    .rosewater { fill: #f2d5cf; }
    .sky { fill: #99d1db; }
    .sapphire { fill: #85c1dc; }
    .maroon { fill: #ea999c; }
  </style>
  <g clip-path="url(#window)">
    <rect class="base" width="420" height="180"/>
    <rect class="surface" width="420" height="32"/>
    <circle class="red" cx="20" cy="16" r="5"/>
    <circle class="yellow" cx="40" cy="16" r="5"/>
    <circle class="green" cx="60" cy="16" r="5"/>
  </g>
  <text x="16" y="54" class="text"><tspan class="green">➜</tspan><tspan class="teal"> ~</tspan><tspan class="subtext"> fastfetch --karol</tspan></text>
  <text x="20" y="76" class="subtext">/\_/\</text>
  <text x="16" y="92" class="subtext">( o.o )</text>
  <text x="20" y="108" class="subtext">&gt; ^ &lt;</text>
  <text x="90" y="76" class="text"><tspan class="mauve">karol</tspan><tspan class="subtext">@</tspan><tspan class="pink">nixos</tspan></text>
  <text x="90" y="92" class="subtext">──────────────</text>
  <text x="90" y="108" class="text"><tspan class="blue">os</tspan><tspan class="subtext">      · nixos</tspan></text>
  <text x="90" y="124" class="text"><tspan class="blue">shell</tspan><tspan class="subtext">   · zsh</tspan></text>
  <text x="90" y="140" class="text"><tspan class="blue">editor</tspan><tspan class="subtext">  · nvim / zed</tspan></text>
  <text x="90" y="156" class="text"><tspan class="blue">wm</tspan><tspan class="subtext">      · hyprland</tspan></text>
  <circle class="rosewater" cx="280" cy="76" r="6"/>
  <circle class="flamingo" cx="298" cy="76" r="6"/>
  <circle class="pink" cx="316" cy="76" r="6"/>
  <circle class="mauve" cx="334" cy="76" r="6"/>
  <circle class="red" cx="352" cy="76" r="6"/>
  <circle class="maroon" cx="370" cy="76" r="6"/>
  <circle class="peach" cx="388" cy="76" r="6"/>
  <circle class="yellow" cx="280" cy="96" r="6"/>
  <circle class="green" cx="298" cy="96" r="6"/>
  <circle class="teal" cx="316" cy="96" r="6"/>
  <circle class="sky" cx="334" cy="96" r="6"/>
  <circle class="sapphire" cx="352" cy="96" r="6"/>
  <circle class="blue" cx="370" cy="96" r="6"/>
  <circle class="lavender" cx="388" cy="96" r="6"/>
</svg>
